<?xml version="1.0" encoding="UTF-8"?>
<!DOCTYPE svg PUBLIC "-//W3C//DTD SVG 1.1//EN" "http://www.w3.org/Graphics/SVG/1.1/DTD/svg11.dtd">
<svg xmlns="http://www.w3.org/2000/svg" version="1.1" width="482px" height="599px" style="shape-rendering:geometricPrecision; text-rendering:geometricPrecision; image-rendering:optimizeQuality; fill-rule:evenodd; clip-rule:evenodd" xmlns:xlink="http://www.w3.org/1999/xlink">
<g><path style="opacity:1" fill="#7d15e8" d="M -0.5,-0.5 C 160.167,-0.5 320.833,-0.5 481.5,-0.5C 481.5,199.167 481.5,398.833 481.5,598.5C 320.833,598.5 160.167,598.5 -0.5,598.5C -0.5,398.833 -0.5,199.167 -0.5,-0.5 Z"/></g>
<g><path style="opacity:1" fill="#bd83f3" d="M 357.5,45.5 C 274.665,45.1673 191.998,45.5007 109.5,46.5C 106.598,47.5778 103.598,48.2444 100.5,48.5C 102.96,47.1092 105.626,45.9425 108.5,45C 191.668,44.1677 274.668,44.3343 357.5,45.5 Z"/></g>
<g><path style="opacity:1" fill="#f8effc" d="M 109.5,46.5 C 191.998,45.5007 274.665,45.1673 357.5,45.5C 360.354,46.2051 363.021,47.2051 365.5,48.5C 366.93,49.5375 368.597,50.2041 370.5,50.5C 378.75,55.416 384.417,62.416 387.5,71.5C 385.938,71.7329 384.605,72.3995 383.5,73.5C 382.833,72.8333 382.167,72.1667 381.5,71.5C 380.89,69.5659 379.89,67.8993 378.5,66.5C 377.92,64.2512 376.587,62.5846 374.5,61.5C 370.752,57.2905 366.085,54.6239 360.5,53.5C 358.833,52.8333 357.167,52.1667 355.5,51.5C 355.5,51.1667 355.5,50.8333 355.5,50.5C 356.718,49.8386 358.051,49.1719 359.5,48.5C 358.975,47.8076 358.308,47.3076 357.5,47C 274.834,46.5 192.167,46.3333 109.5,46.5 Z"/></g>
<g><path style="opacity:1" fill="#fefefe" d="M 109.5,46.5 C 192.167,46.3333 274.834,46.5 357.5,47C 358.308,47.3076 358.975,47.8076 359.5,48.5C 358.051,49.1719 356.718,49.8386 355.5,50.5C 273.166,50.3333 190.833,50.5 108.5,51C 107.944,51.3826 107.611,51.8826 107.5,52.5C 106.5,52.5 105.5,52.5 104.5,52.5C 102.381,52.5323 101.048,51.5323 100.5,49.5C 100.5,49.1667 100.5,48.8333 100.5,48.5C 103.598,48.2444 106.598,47.5778 109.5,46.5 Z"/></g>
<g><path style="opacity:1" fill="#c18cf8" d="M 365.5,48.5 C 367.698,48.1201 369.365,48.7868 370.5,50.5C 368.597,50.2041 366.93,49.5375 365.5,48.5 Z"/></g>
<g><path style="opacity:1" fill="#cfa7f3" d="M 355.5,50.5 C 355.5,50.8333 355.5,51.1667 355.5,51.5C 272.792,51.1723 190.126,51.5056 107.5,52.5C 107.611,51.8826 107.944,51.3826 108.5,51C 190.833,50.5 273.166,50.3333 355.5,50.5 Z"/></g>
<g><path style="opacity:1" fill="#9b46ef" d="M 355.5,51.5 C 357.167,52.1667 358.833,52.8333 360.5,53.5C 275.168,52.1694 189.835,52.1694 104.5,53.5C 104.5,53.1667 104.5,52.8333 104.5,52.5C 105.5,52.5 106.5,52.5 107.5,52.5C 190.126,51.5056 272.792,51.1723 355.5,51.5 Z"/></g>
<g><path style="opacity:1" fill="#b87df2" d="M 374.5,61.5 C 376.587,62.5846 377.92,64.2512 378.5,66.5C 376.413,65.4154 375.08,63.7488 374.5,61.5 Z"/></g>
<g><path style="opacity:1" fill="#9546e5" d="M 381.5,71.5 C 382.167,72.1667 382.833,72.8333 383.5,73.5C 383.5,75.5 383.5,77.5 383.5,79.5C 383.5,184.167 383.5,288.833 383.5,393.5C 383.268,397.942 381.935,401.942 379.5,405.5C 379.784,402.746 380.451,400.08 381.5,397.5C 382.825,288.814 382.825,180.147 381.5,71.5 Z"/></g>
<g><path style="opacity:1" fill="#aa65f3" d="M 86.5,70.5 C 86.7692,72.4286 86.2692,74.0953 85,75.5C 84.5,182.499 84.3333,289.499 84.5,396.5C 83.5418,394.698 82.8751,392.698 82.5,390.5C 82.3333,286.499 82.5,182.499 83,78.5C 83.3221,75.3337 84.4887,72.667 86.5,70.5 Z"/></g>
<g><path style="opacity:1" fill="#f1e7fc" d="M 100.5,49.5 C 101.048,51.5323 102.381,52.5323 104.5,52.5C 104.5,52.8333 104.5,53.1667 104.5,53.5C 95.9137,56.4545 89.9137,62.1212 86.5,70.5C 84.4887,72.667 83.3221,75.3337 83,78.5C 82.5,182.499 82.3333,286.499 82.5,390.5C 81.6669,286.667 81.1669,182.667 81,78.5C 80.2303,77.4019 79.397,77.4019 78.5,78.5C 78.5,76.8333 78.5,75.1667 78.5,73.5C 81.366,61.3045 88.6993,53.3045 100.5,49.5 Z"/></g>
<g><path style="opacity:1" fill="#d1acf5" d="M 78.5,73.5 C 78.5,75.1667 78.5,76.8333 78.5,78.5C 77.5065,183.805 77.1731,289.138 77.5,394.5C 76.5005,289.001 76.1672,183.335 76.5,77.5C 77.1667,76.1667 77.8333,74.8333 78.5,73.5 Z"/></g>
<g><path style="opacity:1" fill="#a962f0" d="M 76.5,77.5 C 76.1672,183.335 76.5005,289.001 77.5,394.5C 78.3007,396.042 78.634,397.708 78.5,399.5C 77.7677,398.192 76.9344,396.858 76,395.5C 75.1675,289.333 75.3341,183.333 76.5,77.5 Z"/></g>
<g><path style="opacity:1" fill="#aa5df5" d="M 389.5,76.5 C 390.117,76.6107 390.617,76.944 391,77.5C 391.833,182.334 391.666,287.001 390.5,391.5C 390.829,286.459 390.496,181.459 389.5,76.5 Z"/></g>
<g><path style="opacity:1" fill="#dcb3fd" d="M 388.5,75.5 C 389.167,75.5 389.5,75.8333 389.5,76.5C 390.496,181.459 390.829,286.459 390.5,391.5C 390.768,393.099 390.434,394.432 389.5,395.5C 389.825,288.812 389.491,182.145 388.5,75.5 Z"/></g>
<g><path style="opacity:1" fill="#7e16e8" d="M 360.5,53.5 C 366.085,54.6239 370.752,57.2905 374.5,61.5C 375.08,63.7488 376.413,65.4154 378.5,66.5C 379.89,67.8993 380.89,69.5659 381.5,71.5C 382.825,180.147 382.825,288.814 381.5,397.5C 380.451,400.08 379.784,402.746 379.5,405.5C 375.259,413.067 368.925,418.067 360.5,420.5C 276.833,420.667 193.166,420.5 109.5,420C 106.986,418.748 104.32,418.248 101.5,418.5C 92.4587,413.74 86.792,406.407 84.5,396.5C 84.3333,289.499 84.5,182.499 85,75.5C 86.2692,74.0953 86.7692,72.4286 86.5,70.5C 89.9137,62.1212 95.9137,56.4545 104.5,53.5C 189.835,52.1694 275.168,52.1694 360.5,53.5 Z"/></g>
<g><path style="opacity:1" fill="#f9f3fd" d="M 262.5,66.5 C 264.03,67.2112 265.363,68.2112 266.5,69.5C 268.239,72.2427 270.573,74.2427 273.5,75.5C 277.997,80.8299 282.997,85.6632 288.5,90C 300.5,90.6667 312.5,90.6667 324.5,90C 331.735,82.2614 339.402,75.0948 347.5,68.5C 349.162,85.6426 350.162,102.976 350.5,120.5C 351.5,120.5 352.5,120.5 353.5,120.5C 357.5,120.5 361.5,120.5 365.5,120.5C 365.649,121.552 365.483,122.552 365,123.5C 363.378,124.099 361.878,124.766 360.5,125.5C 357.303,125.405 354.303,126.072 351.5,127.5C 350.353,131.646 350.186,135.98 351,140.5C 354.057,141.451 357.223,141.784 360.5,141.5C 361.99,143.28 363.99,143.946 366.5,143.5C 366.833,143.5 367.167,143.5 367.5,143.5C 367.5,145.167 367.5,146.833 367.5,148.5C 364.482,148.296 361.482,147.963 358.5,147.5C 356.833,147.5 355.167,147.5 353.5,147.5C 352.791,146.596 351.791,146.263 350.5,146.5C 350.5,168.5 350.5,190.5 350.5,212.5C 350.5,220.5 350.5,228.5 350.5,236.5C 321.167,236.5 291.833,236.5 262.5,236.5C 262.5,206.5 262.5,176.5 262.5,146.5C 260.265,146.205 258.265,146.539 256.5,147.5C 252.342,148.539 248.342,148.539 244.5,147.5C 244.297,145.61 244.963,144.11 246.5,143C 248.708,142.809 250.708,142.309 252.5,141.5C 252.833,141.5 253.167,141.5 253.5,141.5C 257.012,142.055 260.012,141.388 262.5,139.5C 262.5,135.5 262.5,131.5 262.5,127.5C 258.418,127.108 254.418,126.442 250.5,125.5C 248.68,124.937 247.347,123.771 246.5,122C 247.385,119.843 249.052,119.01 251.5,119.5C 253.167,119.5 254.833,119.5 256.5,119.5C 258.265,120.461 260.265,120.795 262.5,120.5C 262.5,102.5 262.5,84.5 262.5,66.5 Z"/></g>
<g><path style="opacity:1" fill="#8c35ea" d="M 120.5,73.5 C 119.531,76.2455 118.864,79.0788 118.5,82C 119.322,85.1406 119.989,88.3073 120.5,91.5C 120.446,94.9924 121.446,97.9924 123.5,100.5C 125.772,107.647 128.438,114.647 131.5,121.5C 130.206,120.71 129.039,119.71 128,118.5C 127.195,120.901 126.362,120.734 125.5,118C 126.266,114.582 126.266,111.082 125.5,107.5C 124.178,107.33 123.011,107.663 122,108.5C 120.615,104.777 118.781,101.277 116.5,98C 117.167,96 117.833,94 118.5,92C 117.363,86.918 117.196,81.7513 118,76.5C 118.377,75.0577 119.21,74.0577 120.5,73.5 Z"/></g>
<g><path style="opacity:1" fill="#d6a9fc" d="M 349.5,66.5 C 350.497,84.3256 350.83,102.326 350.5,120.5C 350.162,102.976 349.162,85.6426 347.5,68.5C 347.833,67.5 348.5,66.8333 349.5,66.5 Z"/></g>
<g><path style="opacity:1" fill="#a25ded" d="M 262.5,66.5 C 262.5,84.5 262.5,102.5 262.5,120.5C 260.265,120.795 258.265,120.461 256.5,119.5C 258.167,119.5 259.833,119.5 261.5,119.5C 261.17,101.659 261.503,83.9921 262.5,66.5 Z"/></g>
<g><path style="opacity:1" fill="#cea6f7" d="M 187.5,65.5 C 189.722,65.178 191.556,65.8446 193,67.5C 193.667,75.8333 193.667,84.1667 193,92.5C 192.218,95.3102 191.384,97.9768 190.5,100.5C 192.207,89.899 192.707,79.2323 192,68.5C 190.591,67.2189 189.091,66.2189 187.5,65.5 Z"/></g>
<g><path style="opacity:1" fill="#9a47ef" d="M 349.5,66.5 C 349.56,65.9569 349.893,65.6236 350.5,65.5C 350.841,83.852 351.841,101.852 353.5,119.5C 353.5,119.833 353.5,120.167 353.5,120.5C 352.5,120.5 351.5,120.5 350.5,120.5C 350.83,102.326 350.497,84.3256 349.5,66.5 Z"/></g>
<g><path style="opacity:1" fill="#bd79f8" d="M 266.5,69.5 C 269.427,70.7573 271.761,72.7573 273.5,75.5C 270.573,74.2427 268.239,72.2427 266.5,69.5 Z"/></g>
<g><path style="opacity:1" fill="#f8f1fd" d="M 148.5,62.5 C 148.833,65.5 147.5,66.8333 144.5,66.5C 141.848,66.4095 139.515,67.0762 137.5,68.5C 135.102,68.2594 133.102,68.9261 131.5,70.5C 128.833,71.1667 127.167,72.8333 126.5,75.5C 125.883,75.6107 125.383,75.944 125,76.5C 124.192,80.0267 124.359,83.3601 125.5,86.5C 128.871,97.2635 132.871,107.93 137.5,118.5C 137.461,119.756 137.961,120.756 139,121.5C 139.333,114.833 139.667,108.167 140,101.5C 141.446,99.0585 142.279,96.3919 142.5,93.5C 145.384,78.4432 154.384,68.9432 169.5,65C 175.681,64.1808 181.681,64.3475 187.5,65.5C 189.091,66.2189 190.591,67.2189 192,68.5C 192.707,79.2323 192.207,89.899 190.5,100.5C 189.662,100.842 189.328,101.508 189.5,102.5C 187.188,107.795 184.855,113.129 182.5,118.5C 181.094,118.973 180.427,119.973 180.5,121.5C 178.167,124.167 175.833,126.833 173.5,129.5C 172.596,130.209 172.263,131.209 172.5,132.5C 179.323,133.491 186.323,134.158 193.5,134.5C 209.796,137.307 223.296,144.974 234,157.5C 235.122,159.407 235.955,161.407 236.5,163.5C 236.621,166.105 237.621,168.105 239.5,169.5C 239.325,171.621 239.659,173.621 240.5,175.5C 240.902,183.945 240.235,192.279 238.5,200.5C 237.167,200.5 235.833,200.5 234.5,200.5C 234.5,197.5 234.5,194.5 234.5,191.5C 234.5,191.167 234.5,190.833 234.5,190.5C 235.883,184.756 235.55,179.09 233.5,173.5C 231.688,165.214 227.355,158.547 220.5,153.5C 209.68,144.278 197.013,139.612 182.5,139.5C 174.01,138.67 165.343,138.17 156.5,138C 157.056,137.617 157.389,137.117 157.5,136.5C 167.697,128.637 175.697,118.971 181.5,107.5C 183.935,103.942 185.268,99.9417 185.5,95.5C 185.5,93.8333 185.5,92.1667 185.5,90.5C 186.97,87.114 187.637,83.4473 187.5,79.5C 187.473,76.9105 187.139,74.4105 186.5,72C 180.947,70.4301 175.281,70.0968 169.5,71C 166.813,71.7285 164.48,72.8951 162.5,74.5C 155.744,78.6511 151.411,84.6511 149.5,92.5C 147.926,94.1016 147.259,96.1016 147.5,98.5C 147.326,100.861 146.993,103.194 146.5,105.5C 145.508,112.982 145.175,120.648 145.5,128.5C 144.209,128.263 143.209,128.596 142.5,129.5C 131.382,130.3 122.882,135.3 117,144.5C 116.503,147.146 116.336,149.813 116.5,152.5C 116.725,155.546 118.058,157.879 120.5,159.5C 122.637,162.973 125.637,165.306 129.5,166.5C 131.493,168.163 133.826,169.33 136.5,170C 142.157,170.499 147.824,170.666 153.5,170.5C 154.959,170.433 156.292,170.766 157.5,171.5C 160.734,172.089 162.067,174.089 161.5,177.5C 157.51,176.837 153.51,176.17 149.5,175.5C 146.845,175.44 144.511,176.107 142.5,177.5C 139.07,181.363 138.57,185.696 141,190.5C 143.357,195.355 146.857,199.021 151.5,201.5C 152.622,202.947 154.122,203.947 156,204.5C 156.49,205.793 156.657,207.127 156.5,208.5C 156.389,209.117 156.056,209.617 155.5,210C 140.994,210.827 126.661,210.661 112.5,209.5C 112.232,207.901 112.566,206.568 113.5,205.5C 123.833,205.5 134.167,205.5 144.5,205.5C 144.843,203.517 144.176,202.183 142.5,201.5C 142.167,201.5 141.833,201.5 141.5,201.5C 138.707,198.058 136.373,194.391 134.5,190.5C 134.223,185.767 134.557,181.1 135.5,176.5C 134.995,175.081 133.995,174.415 132.5,174.5C 131.292,173.766 129.959,173.433 128.5,173.5C 128.027,172.094 127.027,171.427 125.5,171.5C 114.762,165.613 109.929,156.613 111,144.5C 114.829,134.672 121.829,128.338 132,125.5C 132.765,123.934 132.598,122.601 131.5,121.5C 128.438,114.647 125.772,107.647 123.5,100.5C 122.946,97.2542 121.946,94.2542 120.5,91.5C 119.989,88.3073 119.322,85.1406 118.5,82C 118.864,79.0788 119.531,76.2455 120.5,73.5C 122.923,68.7417 126.589,65.4084 131.5,63.5C 137.179,62.0767 142.846,61.7434 148.5,62.5 Z"/></g>
<g><path style="opacity:1" fill="#811ce8" d="M 185.5,90.5 C 185.5,92.1667 185.5,93.8333 185.5,95.5C 183.194,99.0845 181.861,103.085 181.5,107.5C 175.697,118.971 167.697,128.637 157.5,136.5C 156.005,136.415 155.005,137.081 154.5,138.5C 163.81,139.498 173.143,139.832 182.5,139.5C 197.013,139.612 209.68,144.278 220.5,153.5C 219.417,153.539 218.417,153.873 217.5,154.5C 217.704,153.471 217.204,152.471 216,151.5C 210.994,153.908 206.161,157.241 201.5,161.5C 200.868,163.737 199.535,165.403 197.5,166.5C 201.951,169.818 206.951,172.152 212.5,173.5C 213.167,173.333 213.833,173.167 214.5,173C 213.304,172.346 213.304,171.846 214.5,171.5C 216.042,172.747 217.542,172.747 219,171.5C 220.092,175.591 222.592,178.424 226.5,180C 225.703,183.745 225.203,187.579 225,191.5C 223.384,192.801 221.884,192.801 220.5,191.5C 225.482,190.022 225.815,187.522 221.5,184C 214.982,178.296 207.648,174.129 199.5,171.5C 199.158,170.662 198.492,170.328 197.5,170.5C 191.181,169.131 184.848,169.631 178.5,172C 179.696,172.654 179.696,173.154 178.5,173.5C 177.365,171.293 176.699,168.96 176.5,166.5C 175.167,166.5 173.833,166.5 172.5,166.5C 168.858,163.198 164.525,161.198 159.5,160.5C 154.672,159.724 150.172,158.057 146,155.5C 145.228,155.645 144.561,155.978 144,156.5C 143.333,158.167 143.333,159.833 144,161.5C 152.368,165.117 160.535,168.784 168.5,172.5C 164.616,172.058 162.616,173.725 162.5,177.5C 163.575,173.062 161.908,171.062 157.5,171.5C 156.292,170.766 154.959,170.433 153.5,170.5C 148.349,169.673 143.016,169.173 137.5,169C 135.091,167.293 132.425,166.46 129.5,166.5C 125.637,165.306 122.637,162.973 120.5,159.5C 119.532,156.9 118.199,154.566 116.5,152.5C 116.336,149.813 116.503,147.146 117,144.5C 122.882,135.3 131.382,130.3 142.5,129.5C 143.833,129.5 145.167,129.5 146.5,129.5C 146.5,121.5 146.5,113.5 146.5,105.5C 146.993,103.194 147.326,100.861 147.5,98.5C 149.074,96.8984 149.741,94.8984 149.5,92.5C 151.411,84.6511 155.744,78.6511 162.5,74.5C 167.026,73.5618 171.526,72.5618 176,71.5C 179.167,71.9008 182.334,72.2341 185.5,72.5C 185.5,78.5 185.5,84.5 185.5,90.5 Z"/></g>
<g><path style="opacity:1" fill="#ca9bfb" d="M 126.5,75.5 C 125.656,79.0991 125.323,82.7657 125.5,86.5C 124.359,83.3601 124.192,80.0267 125,76.5C 125.383,75.944 125.883,75.6107 126.5,75.5 Z"/></g>
<g><path style="opacity:1" fill="#a85ef1" d="M 185.5,90.5 C 185.5,84.5 185.5,78.5 185.5,72.5C 182.334,72.2341 179.167,71.9008 176,71.5C 171.526,72.5618 167.026,73.5618 162.5,74.5C 164.48,72.8951 166.813,71.7285 169.5,71C 175.281,70.0968 180.947,70.4301 186.5,72C 187.139,74.4105 187.473,76.9105 187.5,79.5C 187.637,83.4473 186.97,87.114 185.5,90.5 Z"/></g>
<g><path style="opacity:1" fill="#bf84f7" d="M 131.5,70.5 C 130.167,72.5 128.5,74.1667 126.5,75.5C 127.167,72.8333 128.833,71.1667 131.5,70.5 Z"/></g>
<g><path style="opacity:1" fill="#cd97f9" d="M 144.5,66.5 C 142.485,67.9238 140.152,68.5905 137.5,68.5C 139.515,67.0762 141.848,66.4095 144.5,66.5 Z"/></g>
<g><path style="opacity:1" fill="#cb9afa" d="M 148.5,62.5 C 142.846,61.7434 137.179,62.0767 131.5,63.5C 131.611,62.8826 131.944,62.3826 132.5,62C 136.321,61.4065 140.155,60.9065 144,60.5C 145.986,60.5687 147.486,61.2353 148.5,62.5 Z"/></g>
<g><path style="opacity:1" fill="#fbf7fe" d="M 387.5,71.5 C 388.434,72.5676 388.768,73.901 388.5,75.5C 389.491,182.145 389.825,288.812 389.5,395.5C 387.407,403.687 383.74,411.02 378.5,417.5C 376.251,418.08 374.585,419.413 373.5,421.5C 368.986,423.585 364.32,425.418 359.5,427C 274.149,427.82 188.816,427.653 103.5,426.5C 100.965,424.983 98.2982,423.65 95.5,422.5C 95.0269,421.094 94.0269,420.427 92.5,420.5C 90.8333,419.167 89.1667,417.833 87.5,416.5C 86.9202,414.251 85.5869,412.585 83.5,411.5C 81.8307,407.496 80.1641,403.496 78.5,399.5C 78.634,397.708 78.3007,396.042 77.5,394.5C 77.1731,289.138 77.5065,183.805 78.5,78.5C 79.397,77.4019 80.2303,77.4019 81,78.5C 81.1669,182.667 81.6669,286.667 82.5,390.5C 82.8751,392.698 83.5418,394.698 84.5,396.5C 86.792,406.407 92.4587,413.74 101.5,418.5C 103.96,419.891 106.626,421.058 109.5,422C 191.5,422.667 273.5,422.667 355.5,422C 357.382,421.802 359.048,421.302 360.5,420.5C 368.925,418.067 375.259,413.067 379.5,405.5C 381.935,401.942 383.268,397.942 383.5,393.5C 384.833,341.838 385.5,289.838 385.5,237.5C 385.333,185.5 385.167,133.5 385,81.5C 384.722,80.5842 384.222,79.9175 383.5,79.5C 383.5,77.5 383.5,75.5 383.5,73.5C 384.605,72.3995 385.938,71.7329 387.5,71.5 Z"/></g>
<g><path style="opacity:1" fill="#a049ee" d="M 129.5,397.5 C 129.833,397.5 130.167,397.5 130.5,397.5C 159.5,398.833 188.5,398.833 217.5,397.5C 217.833,397.5 218.167,397.5 218.5,397.5C 204.015,398.833 189.182,399.499 174,399.5C 158.818,399.499 143.985,398.833 129.5,397.5 Z"/></g>
<g><path style="opacity:1" fill="#debcf8" d="M 130.5,332.5 C 131.497,353.994 131.831,375.66 131.5,397.5C 160.167,397.5 188.833,397.5 217.5,397.5C 188.5,398.833 159.5,398.833 130.5,397.5C 130.5,375.833 130.5,354.167 130.5,332.5 Z"/></g>
<g><path style="opacity:1" fill="#cea4f8" d="M 308.5,381.5 C 310.305,388.768 311.139,396.435 311,404.5C 312.011,405.337 313.178,405.67 314.5,405.5C 312.511,406.887 310.678,406.553 309,404.5C 308.5,396.841 308.334,389.174 308.5,381.5 Z"/></g>
<g><path style="opacity:1" fill="#dcbdfa" d="M 351.5,376.5 C 350.5,376.5 349.5,376.5 348.5,376.5C 348.5,385.5 348.5,394.5 348.5,403.5C 348.5,404.167 348.167,404.5 347.5,404.5C 347.5,394.833 347.5,385.167 347.5,375.5C 349.099,375.232 350.432,375.566 351.5,376.5 Z"/></g>
<g><path style="opacity:1" fill="#ac60f2" d="M 351.5,376.5 C 357.167,376.5 362.833,376.5 368.5,376.5C 362.355,377.49 356.022,377.823 349.5,377.5C 349.826,386.349 349.493,395.016 348.5,403.5C 348.5,394.5 348.5,385.5 348.5,376.5C 349.5,376.5 350.5,376.5 351.5,376.5 Z"/></g>
<g><path style="opacity:1" fill="#c796f7" d="M 299.5,378.5 C 302.01,378.054 304.01,378.72 305.5,380.5C 303.214,380.405 301.214,379.738 299.5,378.5 Z"/></g>
<g><path style="opacity:1" fill="#b87df3" d="M 130.5,332.5 C 130.5,354.167 130.5,375.833 130.5,397.5C 130.167,397.5 129.833,397.5 129.5,397.5C 129.5,350.167 129.5,302.833 129.5,255.5C 124.821,255.334 120.155,255.501 115.5,256C 113.963,257.707 112.296,259.207 110.5,260.5C 111.075,258.589 112.075,256.922 113.5,255.5C 119.075,254.548 124.741,254.214 130.5,254.5C 130.5,280.5 130.5,306.5 130.5,332.5 Z"/></g>
<g><path style="opacity:1" fill="#faf5fd" d="M 368.5,338.5 C 369.117,338.611 369.617,338.944 370,339.5C 370.5,351.495 370.667,363.495 370.5,375.5C 369.833,375.833 369.167,376.167 368.5,376.5C 362.833,376.5 357.167,376.5 351.5,376.5C 350.432,375.566 349.099,375.232 347.5,375.5C 347.5,385.167 347.5,394.833 347.5,404.5C 345.833,405.833 344.167,405.833 342.5,404.5C 342.5,396.167 342.5,387.833 342.5,379.5C 340.585,379.216 338.919,379.549 337.5,380.5C 335.435,380.517 333.435,380.85 331.5,381.5C 330.167,381.5 328.833,381.5 327.5,381.5C 323.239,380.949 319.072,380.949 315,381.5C 314.5,389.159 314.334,396.826 314.5,404.5C 314.5,404.833 314.5,405.167 314.5,405.5C 313.178,405.67 312.011,405.337 311,404.5C 311.139,396.435 310.305,388.768 308.5,381.5C 307.791,380.596 306.791,380.263 305.5,380.5C 304.01,378.72 302.01,378.054 299.5,378.5C 296.544,376.851 293.544,375.517 290.5,374.5C 287.53,371.775 287.863,369.775 291.5,368.5C 294.603,370.384 297.937,371.718 301.5,372.5C 303.515,373.924 305.848,374.59 308.5,374.5C 315.412,375.462 322.412,375.795 329.5,375.5C 336.167,374.5 336.167,373.5 329.5,372.5C 328.833,372.5 328.5,372.167 328.5,371.5C 327.571,370.685 326.571,369.852 325.5,369C 326.416,368.626 327.25,368.126 328,367.5C 330.041,368.423 332.208,368.756 334.5,368.5C 336.903,368.448 339.236,368.781 341.5,369.5C 342.167,369.5 342.833,369.5 343.5,369.5C 344.952,370.302 346.618,370.802 348.5,371C 353.823,371.499 359.156,371.666 364.5,371.5C 365.33,361.341 365.83,351.008 366,340.5C 366.708,339.619 367.542,338.953 368.5,338.5 Z"/></g>
<g><path style="opacity:1" fill="#bc86f7" d="M 337.5,380.5 C 338.919,379.549 340.585,379.216 342.5,379.5C 342.5,387.833 342.5,396.167 342.5,404.5C 341.508,396.684 341.174,388.684 341.5,380.5C 340.167,380.5 338.833,380.5 337.5,380.5 Z"/></g>
<g><path style="opacity:1" fill="#b676f6" d="M 327.5,381.5 C 328.833,381.5 330.167,381.5 331.5,381.5C 330.737,382.268 329.737,382.768 328.5,383C 324.514,383.499 320.514,383.666 316.5,383.5C 317.13,391.243 316.463,398.576 314.5,405.5C 314.5,405.167 314.5,404.833 314.5,404.5C 315.492,397.352 315.825,390.019 315.5,382.5C 319.702,382.817 323.702,382.483 327.5,381.5 Z"/></g>
<g><path style="opacity:1" fill="#ead5fc" d="M 327.5,381.5 C 323.702,382.483 319.702,382.817 315.5,382.5C 315.825,390.019 315.492,397.352 314.5,404.5C 314.334,396.826 314.5,389.159 315,381.5C 319.072,380.949 323.239,380.949 327.5,381.5 Z"/></g>
<g><path style="opacity:1" fill="#c08af5" d="M 329.5,372.5 C 336.167,373.5 336.167,374.5 329.5,375.5C 330.263,374.732 331.263,374.232 332.5,374C 331.263,373.768 330.263,373.268 329.5,372.5 Z"/></g>
<g><path style="opacity:1" fill="#c089f6" d="M 301.5,372.5 C 304.152,372.41 306.485,373.076 308.5,374.5C 305.848,374.59 303.515,373.924 301.5,372.5 Z"/></g>
<g><path style="opacity:1" fill="#b773f5" d="M 365.5,334.5 C 367.716,335.203 369.549,336.536 371,338.5C 371.827,351.007 371.66,363.34 370.5,375.5C 370.667,363.495 370.5,351.495 370,339.5C 369.617,338.944 369.117,338.611 368.5,338.5C 367.5,337.167 366.5,335.833 365.5,334.5 Z"/></g>
<g><path style="opacity:1" fill="#ab67f0" d="M 265.5,353.5 C 267.587,354.585 268.92,356.251 269.5,358.5C 267.413,357.415 266.08,355.749 265.5,353.5 Z"/></g>
<g><path style="opacity:1" fill="#c288f8" d="M 232.5,255.5 C 227.833,255.5 223.167,255.5 218.5,255.5C 218.5,302.833 218.5,350.167 218.5,397.5C 218.167,397.5 217.833,397.5 217.5,397.5C 217.5,349.833 217.5,302.167 217.5,254.5C 222.695,254.179 227.695,254.513 232.5,255.5 Z"/></g>
<g><path style="opacity:1" fill="#c088f2" d="M 252.5,316.5 C 253.307,320.021 253.974,323.688 254.5,327.5C 253.883,327.389 253.383,327.056 253,326.5C 252.502,323.183 252.335,319.85 252.5,316.5 Z"/></g>
<g><path style="opacity:1" fill="#c38ff7" d="M 339.5,310.5 C 341.404,310.738 342.738,311.738 343.5,313.5C 341.596,313.262 340.262,312.262 339.5,310.5 Z"/></g>
<g><path style="opacity:1" fill="#c797f6" d="M 254.5,287.5 C 254.741,289.898 254.074,291.898 252.5,293.5C 252.259,291.102 252.926,289.102 254.5,287.5 Z"/></g>
<g><path style="opacity:1" fill="#a054f0" d="M 232.5,282.5 C 231.048,283.302 229.382,283.802 227.5,284C 226.62,285.356 226.286,286.856 226.5,288.5C 228.265,289.461 230.265,289.795 232.5,289.5C 232.03,290.693 231.03,291.36 229.5,291.5C 226.253,291.752 224.92,290.252 225.5,287C 225.559,285.564 225.892,284.231 226.5,283C 228.473,282.505 230.473,282.338 232.5,282.5 Z"/></g>
<g><path style="opacity:1" fill="#d0a3fa" d="M 235.5,287.5 C 235.167,288.167 234.833,288.833 234.5,289.5C 233.833,289.5 233.167,289.5 232.5,289.5C 230.265,289.795 228.265,289.461 226.5,288.5C 229.57,288.632 232.57,288.299 235.5,287.5 Z"/></g>
<g><path style="opacity:1" fill="#c699f8" d="M 320.5,285.5 C 318.721,286.67 317.721,288.336 317.5,290.5C 316.094,287.661 317.094,285.994 320.5,285.5 Z"/></g>
<g><path style="opacity:1" fill="#f9f2fd" d="M 169.5,248.5 C 169.795,250.735 169.461,252.735 168.5,254.5C 157.833,254.5 147.167,254.5 136.5,254.5C 135.502,289.329 135.168,324.329 135.5,359.5C 136.791,359.737 137.791,359.404 138.5,358.5C 138.833,357.833 139.167,357.167 139.5,356.5C 141.117,353.216 143.45,350.549 146.5,348.5C 169.558,334.359 190.558,337.026 209.5,356.5C 209.461,357.756 209.961,358.756 211,359.5C 211.831,324.331 211.664,289.331 210.5,254.5C 200.347,253.506 190.014,253.172 179.5,253.5C 179.5,252.167 179.5,250.833 179.5,249.5C 197.5,249.5 215.5,249.5 233.5,249.5C 237.139,251.575 240.305,254.241 243,257.5C 244.068,266.058 243.568,274.391 241.5,282.5C 239.475,284.196 237.475,285.863 235.5,287.5C 232.57,288.299 229.57,288.632 226.5,288.5C 226.286,286.856 226.62,285.356 227.5,284C 229.382,283.802 231.048,283.302 232.5,282.5C 234.167,281.5 235.5,280.167 236.5,278.5C 237.165,275.351 237.498,272.018 237.5,268.5C 237.486,264.761 236.82,261.428 235.5,258.5C 234.833,257.167 233.833,256.167 232.5,255.5C 227.695,254.513 222.695,254.179 217.5,254.5C 217.5,302.167 217.5,349.833 217.5,397.5C 188.833,397.5 160.167,397.5 131.5,397.5C 131.831,375.66 131.497,353.994 130.5,332.5C 130.5,306.5 130.5,280.5 130.5,254.5C 124.741,254.214 119.075,254.548 113.5,255.5C 111.824,254.817 111.157,253.483 111.5,251.5C 112.091,250.849 112.757,250.182 113.5,249.5C 132.155,248.5 150.821,248.167 169.5,248.5 Z"/></g>
<g><path style="opacity:1" fill="#9d4cee" d="M 205.5,363.5 C 206.167,363.5 206.5,363.833 206.5,364.5C 206.427,366.027 207.094,367.027 208.5,367.5C 208.5,368.167 208.5,368.833 208.5,369.5C 210.182,376.714 210.848,384.048 210.5,391.5C 186.337,392.663 162.003,392.83 137.5,392C 136.855,389.086 136.522,386.086 136.5,383C 136.326,378.558 136.993,374.391 138.5,370.5C 138.5,377.167 138.5,383.833 138.5,390.5C 162.167,390.5 185.833,390.5 209.5,390.5C 209.907,381.16 208.574,372.16 205.5,363.5 Z"/></g>
<g><path style="opacity:1" fill="#bb83f2" d="M 208.5,369.5 C 210.13,371.026 210.963,373.026 211,375.5C 211.817,381.016 211.651,386.35 210.5,391.5C 210.848,384.048 210.182,376.714 208.5,369.5 Z"/></g>
<g><path style="opacity:1" fill="#bf9cf0" d="M 206.5,364.5 C 207.906,364.973 208.573,365.973 208.5,367.5C 207.094,367.027 206.427,366.027 206.5,364.5 Z"/></g>
<g><path style="opacity:1" fill="#a963f1" d="M 144.5,359.5 C 144.222,364.226 142.222,367.893 138.5,370.5C 139.22,366.055 141.22,362.388 144.5,359.5 Z"/></g>
<g><path style="opacity:1" fill="#9a4cef" d="M 159.5,348.5 C 157.737,351.556 155.07,353.389 151.5,354C 150.368,357.365 148.035,359.199 144.5,359.5C 148.258,354.123 153.258,350.456 159.5,348.5 Z"/></g>
<g><path style="opacity:1" fill="#7f14e8" d="M 188.5,348.5 C 192.615,350.775 196.615,353.275 200.5,356C 202.808,358.128 204.474,360.628 205.5,363.5C 208.574,372.16 209.907,381.16 209.5,390.5C 185.833,390.5 162.167,390.5 138.5,390.5C 138.5,383.833 138.5,377.167 138.5,370.5C 142.222,367.893 144.222,364.226 144.5,359.5C 148.035,359.199 150.368,357.365 151.5,354C 155.07,353.389 157.737,351.556 159.5,348.5C 169.174,347.196 178.84,347.196 188.5,348.5 Z"/></g>
<g><path style="opacity:1" fill="#8424e9" d="M 181.5,255.5 C 191.167,255.5 200.833,255.5 210.5,255.5C 210.832,289.337 210.498,323.004 209.5,356.5C 190.558,337.026 169.558,334.359 146.5,348.5C 146.719,347.325 146.386,346.325 145.5,345.5C 143.994,344.77 142.66,344.437 141.5,344.5C 142.008,342.096 143.175,341.429 145,342.5C 145.333,341.5 145.667,340.5 146,339.5C 146.654,340.696 147.154,340.696 147.5,339.5C 145.254,337.237 142.587,335.904 139.5,335.5C 139.933,332.834 140.433,330.168 141,327.5C 142.768,328.131 143.935,327.298 144.5,325C 143.767,323.234 143.433,321.401 143.5,319.5C 143.833,319.5 144.167,319.5 144.5,319.5C 148.218,330.02 155.552,333.854 166.5,331C 170.599,325.173 174.599,325.173 178.5,331C 189.871,334.445 197.537,330.612 201.5,319.5C 202.477,316.713 202.81,313.713 202.5,310.5C 203.042,313.603 204.376,316.436 206.5,319C 203.535,322.086 202.868,325.586 204.5,329.5C 200.774,330.191 197.107,331.191 193.5,332.5C 196.519,336.554 199.019,336.221 201,331.5C 203.178,332.893 204.178,334.56 204,336.5C 204.974,334.122 205.641,334.456 206,337.5C 206.333,337.167 206.667,336.833 207,336.5C 209.128,341.667 208.961,346.667 206.5,351.5C 206.833,352.5 207.5,353.167 208.5,353.5C 209.5,321.174 209.833,288.84 209.5,256.5C 199.985,256.827 190.652,256.494 181.5,255.5 Z"/></g>
<g><path style="opacity:1" fill="#9d4eef" d="M 188.5,348.5 C 178.84,347.196 169.174,347.196 159.5,348.5C 159.611,347.883 159.944,347.383 160.5,347C 169.173,345.044 177.84,345.044 186.5,347C 187.416,347.278 188.082,347.778 188.5,348.5 Z"/></g>
<g><path style="opacity:1" fill="#b66ff7" d="M 136.5,254.5 C 147.167,254.5 157.833,254.5 168.5,254.5C 158.347,255.494 148.014,255.828 137.5,255.5C 136.84,289.517 137.507,323.183 139.5,356.5C 139.167,357.167 138.833,357.833 138.5,358.5C 136.507,324.183 135.84,289.516 136.5,254.5 Z"/></g>
<g><path style="opacity:1" fill="#c997f7" d="M 196.5,309.5 C 197.097,308.861 197.93,308.528 199,308.5C 200.699,308.387 201.866,309.053 202.5,310.5C 202.81,313.713 202.477,316.713 201.5,319.5C 201.665,316.482 201.498,313.482 201,310.5C 199.644,309.62 198.144,309.286 196.5,309.5 Z"/></g>
<g><path style="opacity:1" fill="#c091f7" d="M 166.5,303.5 C 168.113,303.944 169.28,304.944 170,306.5C 170.814,311.02 170.647,315.354 169.5,319.5C 169.666,315.486 169.499,311.486 169,307.5C 167.519,306.529 166.685,305.196 166.5,303.5 Z"/></g>
<g><path style="opacity:1" fill="#f7f0fc" d="M 179.5,295.5 C 179.5,295.833 179.5,296.167 179.5,296.5C 179.632,299.57 179.299,302.57 178.5,305.5C 177.504,305.414 176.671,305.748 176,306.5C 175.186,311.02 175.353,315.354 176.5,319.5C 179.258,324.742 183.591,326.575 189.5,325C 192,323.833 193.833,322 195,319.5C 195.179,315.975 195.679,312.641 196.5,309.5C 198.144,309.286 199.644,309.62 201,310.5C 201.498,313.482 201.665,316.482 201.5,319.5C 197.537,330.612 189.871,334.445 178.5,331C 174.599,325.173 170.599,325.173 166.5,331C 155.552,333.854 148.218,330.02 144.5,319.5C 144.335,316.482 144.502,313.482 145,310.5C 146.333,309.167 147.667,309.167 149,310.5C 149.183,313.365 149.683,316.031 150.5,318.5C 151.397,323.234 154.231,325.567 159,325.5C 163.823,325.676 167.323,323.676 169.5,319.5C 170.647,315.354 170.814,311.02 170,306.5C 169.28,304.944 168.113,303.944 166.5,303.5C 165.371,301.372 165.204,299.039 166,296.5C 166.377,295.058 167.21,294.058 168.5,293.5C 172.697,291.698 176.364,292.365 179.5,295.5 Z"/></g>
<g><path style="opacity:1" fill="#c38ff7" d="M 178.5,305.5 C 176.629,309.866 175.962,314.533 176.5,319.5C 175.353,315.354 175.186,311.02 176,306.5C 176.671,305.748 177.504,305.414 178.5,305.5 Z"/></g>
<g><path style="opacity:1" fill="#dbbbf9" d="M 136.5,254.5 C 135.84,289.516 136.507,324.183 138.5,358.5C 137.791,359.404 136.791,359.737 135.5,359.5C 135.168,324.329 135.502,289.329 136.5,254.5 Z"/></g>
<g><path style="opacity:1" fill="#d3abf9" d="M 150.5,318.5 C 149.683,316.031 149.183,313.365 149,310.5C 147.667,309.167 146.333,309.167 145,310.5C 144.502,313.482 144.335,316.482 144.5,319.5C 144.167,319.5 143.833,319.5 143.5,319.5C 143.335,316.15 143.502,312.817 144,309.5C 146,308.167 148,308.167 150,309.5C 150.498,312.482 150.665,315.482 150.5,318.5 Z"/></g>
<g><path style="opacity:1" fill="#d4b0fa" d="M 179.5,296.5 C 180.634,298.966 180.801,301.633 180,304.5C 179.617,305.056 179.117,305.389 178.5,305.5C 179.299,302.57 179.632,299.57 179.5,296.5 Z"/></g>
<g><path style="opacity:1" fill="#b16bf4" d="M 179.5,295.5 C 176.364,292.365 172.697,291.698 168.5,293.5C 168.611,292.883 168.944,292.383 169.5,292C 172.167,291.333 174.833,291.333 177.5,292C 178.823,292.816 179.489,293.983 179.5,295.5 Z"/></g>
<g><path style="opacity:1" fill="#b572f4" d="M 178.5,254.5 C 189.167,254.5 199.833,254.5 210.5,254.5C 211.664,289.331 211.831,324.331 211,359.5C 209.961,358.756 209.461,357.756 209.5,356.5C 210.498,323.004 210.832,289.337 210.5,255.5C 200.833,255.5 191.167,255.5 181.5,255.5C 180.209,255.737 179.209,255.404 178.5,254.5 Z"/></g>
<g><path style="opacity:1" fill="#e4c6fa" d="M 116.5,283.5 C 118.288,283.215 119.955,283.548 121.5,284.5C 122.488,288.028 120.988,289.694 117,289.5C 115.615,289.486 114.449,289.152 113.5,288.5C 115.591,288.682 117.591,288.348 119.5,287.5C 120.386,286.675 120.719,285.675 120.5,284.5C 118.901,284.768 117.568,284.434 116.5,283.5 Z"/></g>
<g><path style="opacity:1" fill="#c38afb" d="M 241.5,282.5 C 240.712,285.621 238.712,287.288 235.5,287.5C 237.475,285.863 239.475,284.196 241.5,282.5 Z"/></g>
<g><path style="opacity:1" fill="#f0dffd" d="M 148.5,283.5 C 150.167,283.5 151.833,283.5 153.5,283.5C 153.5,285.5 153.5,287.5 153.5,289.5C 148.657,291.5 146.491,289.833 147,284.5C 147.383,283.944 147.883,283.611 148.5,283.5 Z"/></g>
<g><path style="opacity:1" fill="#e5ccf7" d="M 383.5,79.5 C 384.222,79.9175 384.722,80.5842 385,81.5C 385.167,133.5 385.333,185.5 385.5,237.5C 385.5,289.838 384.833,341.838 383.5,393.5C 383.5,288.833 383.5,184.167 383.5,79.5 Z"/></g>
<g><path style="opacity:1" fill="#8019e8" d="M 295.5,256.5 C 306.192,259.692 311.859,266.859 312.5,278C 312.353,282.732 311.519,287.232 310,291.5C 327.652,307.983 345.485,324.316 363.5,340.5C 363.5,350.167 363.5,359.833 363.5,369.5C 359.5,369.5 355.5,369.5 351.5,369.5C 348.833,369.5 346.167,369.5 343.5,369.5C 342.833,369.5 342.167,369.5 341.5,369.5C 341.389,368.883 341.056,368.383 340.5,368C 338.527,367.505 336.527,367.338 334.5,367.5C 330.076,366.454 325.743,365.121 321.5,363.5C 319.967,361.755 317.967,360.755 315.5,360.5C 295.757,351.439 286.424,336.106 287.5,314.5C 288.117,314.389 288.617,314.056 289,313.5C 289.495,311.527 289.662,309.527 289.5,307.5C 291.822,306.198 293.155,304.198 293.5,301.5C 296.449,299.735 297.115,297.402 295.5,294.5C 292.887,293.007 290.887,293.674 289.5,296.5C 288.542,296.953 287.708,297.619 287,298.5C 281.888,308.135 280.054,318.469 281.5,329.5C 281.677,333.708 283.01,337.374 285.5,340.5C 291.188,350.855 299.188,358.855 309.5,364.5C 309.973,365.906 310.973,366.573 312.5,366.5C 317.408,369.357 322.742,371.024 328.5,371.5C 328.5,372.167 328.833,372.5 329.5,372.5C 330.263,373.268 331.263,373.768 332.5,374C 331.263,374.232 330.263,374.732 329.5,375.5C 322.412,375.795 315.412,375.462 308.5,374.5C 306.485,373.076 304.152,372.41 301.5,372.5C 297.937,371.718 294.603,370.384 291.5,368.5C 275.313,358.78 264.979,344.78 260.5,326.5C 260.59,323.848 259.924,321.515 258.5,319.5C 258.5,311.5 258.5,303.5 258.5,295.5C 259.924,293.485 260.59,291.152 260.5,288.5C 261.631,285.007 262.964,281.674 264.5,278.5C 265.674,277.486 266.34,276.153 266.5,274.5C 268.326,272.853 269.66,270.853 270.5,268.5C 273.167,265.167 276.167,262.167 279.5,259.5C 281.665,259.884 283.332,259.217 284.5,257.5C 288.107,256.511 291.774,256.177 295.5,256.5 Z"/></g>
<g><path style="opacity:1" fill="#f4e6fd" d="M 193.5,281.5 C 200.997,280.804 202.997,283.637 199.5,290C 192.783,290.763 190.783,287.93 193.5,281.5 Z"/></g>
<g><path style="opacity:1" fill="#e6cdfc" d="M 153.5,289.5 C 153.5,287.5 153.5,285.5 153.5,283.5C 151.833,283.5 150.167,283.5 148.5,283.5C 150.44,280.959 152.607,280.959 155,283.5C 155.738,285.881 155.238,287.881 153.5,289.5 Z"/></g>
<g><path style="opacity:1" fill="#b16af4" d="M 336.5,273.5 C 338.758,273.775 339.092,274.775 337.5,276.5C 335.978,277.562 334.312,278.229 332.5,278.5C 333.287,276.896 334.62,276.229 336.5,276.5C 336.5,275.5 336.5,274.5 336.5,273.5 Z"/></g>
<g><path style="opacity:1" fill="#882ce8" d="M 178.5,248.5 C 198.329,247.338 218.329,247.171 238.5,248C 238.982,249.008 239.148,250.175 239,251.5C 243.798,251.822 245.631,254.156 244.5,258.5C 245.919,265.555 247.586,272.555 249.5,279.5C 250.002,280.521 250.668,280.688 251.5,280C 253.333,278.5 255.167,277 257,275.5C 257.333,272.833 257.667,270.167 258,267.5C 258.236,269.119 259.069,270.119 260.5,270.5C 258.115,275.985 256.115,281.651 254.5,287.5C 252.926,289.102 252.259,291.102 252.5,293.5C 252.5,294.167 252.167,294.5 251.5,294.5C 251.263,291.788 251.263,289.288 251.5,287C 250.696,285.229 249.529,283.729 248,282.5C 246.68,282.799 245.18,282.966 243.5,283C 242.149,287.609 239.149,289.775 234.5,289.5C 234.833,288.833 235.167,288.167 235.5,287.5C 238.712,287.288 240.712,285.621 241.5,282.5C 243.568,274.391 244.068,266.058 243,257.5C 240.305,254.241 237.139,251.575 233.5,249.5C 215.341,248.503 197.008,248.17 178.5,248.5 Z"/></g>
<g><path style="opacity:1" fill="#af6eef" d="M 235.5,258.5 C 236.82,261.428 237.486,264.761 237.5,268.5C 237.498,272.018 237.165,275.351 236.5,278.5C 236.793,271.745 236.46,265.078 235.5,258.5 Z"/></g>
<g><path style="opacity:1" fill="#fbf7fd" d="M 110.5,276.5 C 111.757,279.427 113.757,281.761 116.5,283.5C 117.568,284.434 118.901,284.768 120.5,284.5C 120.719,285.675 120.386,286.675 119.5,287.5C 117.591,288.348 115.591,288.682 113.5,288.5C 109.883,286.883 107.216,284.216 105.5,280.5C 105.075,273.385 105.575,266.385 107,259.5C 107.667,260.833 108.333,260.833 109,259.5C 109.173,265.348 109.673,271.015 110.5,276.5 Z"/></g>
<g><path style="opacity:1" fill="#f6eefc" d="M 282.5,250.5 C 287.167,250.5 291.833,250.5 296.5,250.5C 298.435,251.15 300.435,251.483 302.5,251.5C 307.953,255.451 312.953,259.951 317.5,265C 323.601,268.385 329.934,271.218 336.5,273.5C 336.5,274.5 336.5,275.5 336.5,276.5C 334.62,276.229 333.287,276.896 332.5,278.5C 328.008,280.097 324.008,282.43 320.5,285.5C 317.094,285.994 316.094,287.661 317.5,290.5C 325.107,296.769 332.44,303.436 339.5,310.5C 340.262,312.262 341.596,313.262 343.5,313.5C 350.807,320.472 358.14,327.472 365.5,334.5C 366.5,335.833 367.5,337.167 368.5,338.5C 367.542,338.953 366.708,339.619 366,340.5C 365.83,351.008 365.33,361.341 364.5,371.5C 364.5,371.167 364.5,370.833 364.5,370.5C 364.827,360.319 364.494,350.319 363.5,340.5C 345.485,324.316 327.652,307.983 310,291.5C 311.519,287.232 312.353,282.732 312.5,278C 311.859,266.859 306.192,259.692 295.5,256.5C 291.689,255.355 287.689,255.188 283.5,256C 281.907,256.949 280.574,258.115 279.5,259.5C 276.167,262.167 273.167,265.167 270.5,268.5C 268.178,269.802 266.845,271.802 266.5,274.5C 264.896,275.287 264.229,276.62 264.5,278.5C 262.964,281.674 261.631,285.007 260.5,288.5C 259.076,290.515 258.41,292.848 258.5,295.5C 258.5,303.5 258.5,311.5 258.5,319.5C 258.171,322.228 258.837,324.562 260.5,326.5C 264.979,344.78 275.313,358.78 291.5,368.5C 287.863,369.775 287.53,371.775 290.5,374.5C 282.554,370.366 275.554,365.032 269.5,358.5C 268.92,356.251 267.587,354.585 265.5,353.5C 262.319,346.973 258.986,340.473 255.5,334C 254.713,331.901 254.38,329.734 254.5,327.5C 253.974,323.688 253.307,320.021 252.5,316.5C 251.536,309.254 251.203,301.92 251.5,294.5C 252.167,294.5 252.5,294.167 252.5,293.5C 254.074,291.898 254.741,289.898 254.5,287.5C 256.115,281.651 258.115,275.985 260.5,270.5C 265.929,261.738 273.262,255.071 282.5,250.5 Z"/></g>
<g><path style="opacity:1" fill="#d2a1fb" d="M 343.5,369.5 C 346.167,369.5 348.833,369.5 351.5,369.5C 355.634,370.485 359.968,370.818 364.5,370.5C 364.5,370.833 364.5,371.167 364.5,371.5C 359.156,371.666 353.823,371.499 348.5,371C 346.618,370.802 344.952,370.302 343.5,369.5 Z"/></g>
<g><path style="opacity:1" fill="#c894f8" d="M 334.5,368.5 C 334.5,368.167 334.5,367.833 334.5,367.5C 336.527,367.338 338.527,367.505 340.5,368C 341.056,368.383 341.389,368.883 341.5,369.5C 339.236,368.781 336.903,368.448 334.5,368.5 Z"/></g>
<g><path style="opacity:1" fill="#c9a0f9" d="M 309.5,364.5 C 311.027,364.427 312.027,365.094 312.5,366.5C 310.973,366.573 309.973,365.906 309.5,364.5 Z"/></g>
<g><path style="opacity:1" fill="#be89f6" d="M 315.5,360.5 C 317.967,360.755 319.967,361.755 321.5,363.5C 319.033,363.245 317.033,362.245 315.5,360.5 Z"/></g>
<g><path style="opacity:1" fill="#b26ef3" d="M 363.5,340.5 C 364.494,350.319 364.827,360.319 364.5,370.5C 359.968,370.818 355.634,370.485 351.5,369.5C 355.5,369.5 359.5,369.5 363.5,369.5C 363.5,359.833 363.5,350.167 363.5,340.5 Z"/></g>
<g><path style="opacity:1" fill="#f5edfd" d="M 295.5,294.5 C 295.6,297.108 294.933,299.442 293.5,301.5C 291.674,303.147 290.34,305.147 289.5,307.5C 288.076,309.515 287.41,311.848 287.5,314.5C 286.424,336.106 295.757,351.439 315.5,360.5C 317.033,362.245 319.033,363.245 321.5,363.5C 325.743,365.121 330.076,366.454 334.5,367.5C 334.5,367.833 334.5,368.167 334.5,368.5C 332.208,368.756 330.041,368.423 328,367.5C 327.25,368.126 326.416,368.626 325.5,369C 326.571,369.852 327.571,370.685 328.5,371.5C 322.742,371.024 317.408,369.357 312.5,366.5C 312.027,365.094 311.027,364.427 309.5,364.5C 299.188,358.855 291.188,350.855 285.5,340.5C 284.538,336.605 283.204,332.939 281.5,329.5C 280.054,318.469 281.888,308.135 287,298.5C 287.708,297.619 288.542,296.953 289.5,296.5C 291.315,295.37 293.315,294.704 295.5,294.5 Z"/></g>
<g><path style="opacity:1" fill="#bb80f5" d="M 281.5,329.5 C 283.204,332.939 284.538,336.605 285.5,340.5C 283.01,337.374 281.677,333.708 281.5,329.5 Z"/></g>
<g><path style="opacity:1" fill="#cca2f8" d="M 258.5,319.5 C 259.924,321.515 260.59,323.848 260.5,326.5C 258.837,324.562 258.171,322.228 258.5,319.5 Z"/></g>
<g><path style="opacity:1" fill="#b374f4" d="M 289.5,307.5 C 289.662,309.527 289.495,311.527 289,313.5C 288.617,314.056 288.117,314.389 287.5,314.5C 287.41,311.848 288.076,309.515 289.5,307.5 Z"/></g>
<g><path style="opacity:1" fill="#b275f5" d="M 293.5,301.5 C 293.155,304.198 291.822,306.198 289.5,307.5C 290.34,305.147 291.674,303.147 293.5,301.5 Z"/></g>
<g><path style="opacity:1" fill="#c693fa" d="M 295.5,294.5 C 297.115,297.402 296.449,299.735 293.5,301.5C 294.933,299.442 295.6,297.108 295.5,294.5 Z"/></g>
<g><path style="opacity:1" fill="#d6aff9" d="M 295.5,294.5 C 293.315,294.704 291.315,295.37 289.5,296.5C 290.887,293.674 292.887,293.007 295.5,294.5 Z"/></g>
<g><path style="opacity:1" fill="#c297f7" d="M 260.5,288.5 C 260.59,291.152 259.924,293.485 258.5,295.5C 258.41,292.848 259.076,290.515 260.5,288.5 Z"/></g>
<g><path style="opacity:1" fill="#c69af9" d="M 266.5,274.5 C 266.34,276.153 265.674,277.486 264.5,278.5C 264.229,276.62 264.896,275.287 266.5,274.5 Z"/></g>
<g><path style="opacity:1" fill="#974ded" d="M 318.5,272.5 C 320.117,273.038 321.784,273.371 323.5,273.5C 323.254,276.47 321.588,277.803 318.5,277.5C 318.5,275.833 318.5,274.167 318.5,272.5 Z"/></g>
<g><path style="opacity:1" fill="#b174f3" d="M 270.5,268.5 C 269.66,270.853 268.326,272.853 266.5,274.5C 266.845,271.802 268.178,269.802 270.5,268.5 Z"/></g>
<g><path style="opacity:1" fill="#d3a8fb" d="M 300.5,265.5 C 295.839,264.832 293.839,266.832 294.5,271.5C 292.167,265.167 294.167,263.167 300.5,265.5 Z"/></g>
<g><path style="opacity:1" fill="#f5e9fd" d="M 300.5,265.5 C 302.441,267.011 302.941,269.011 302,271.5C 299.506,274.086 297.006,274.086 294.5,271.5C 293.839,266.832 295.839,264.832 300.5,265.5 Z"/></g>
<g><path style="opacity:1" fill="#a960f3" d="M 295.5,256.5 C 291.774,256.177 288.107,256.511 284.5,257.5C 283.332,259.217 281.665,259.884 279.5,259.5C 280.574,258.115 281.907,256.949 283.5,256C 287.689,255.188 291.689,255.355 295.5,256.5 Z"/></g>
<g><path style="opacity:1" fill="#e5cef7" d="M 178.5,248.5 C 197.008,248.17 215.341,248.503 233.5,249.5C 215.5,249.5 197.5,249.5 179.5,249.5C 179.5,250.833 179.5,252.167 179.5,253.5C 190.014,253.172 200.347,253.506 210.5,254.5C 199.833,254.5 189.167,254.5 178.5,254.5C 178.5,252.5 178.5,250.5 178.5,248.5 Z"/></g>
<g><path style="opacity:1" fill="#f0e1fb" d="M 111.5,251.5 C 111.157,253.483 111.824,254.817 113.5,255.5C 112.075,256.922 111.075,258.589 110.5,260.5C 110.5,265.833 110.5,271.167 110.5,276.5C 109.673,271.015 109.173,265.348 109,259.5C 108.333,260.833 107.667,260.833 107,259.5C 105.575,266.385 105.075,273.385 105.5,280.5C 104.508,273.018 104.175,265.352 104.5,257.5C 106.254,254.74 108.588,252.74 111.5,251.5 Z"/></g>
<g><path style="opacity:1" fill="#ba7ef8" d="M 296.5,250.5 C 296.5,250.167 296.5,249.833 296.5,249.5C 298.898,249.259 300.898,249.926 302.5,251.5C 300.435,251.483 298.435,251.15 296.5,250.5 Z"/></g>
<g><path style="opacity:1" fill="#dab6f7" d="M 296.5,249.5 C 296.5,249.833 296.5,250.167 296.5,250.5C 291.833,250.5 287.167,250.5 282.5,250.5C 287.072,248.442 291.738,248.109 296.5,249.5 Z"/></g>
<g><path style="opacity:1" fill="#913ae7" d="M 169.5,248.5 C 150.821,248.167 132.155,248.5 113.5,249.5C 112.757,250.182 112.091,250.849 111.5,251.5C 108.588,252.74 106.254,254.74 104.5,257.5C 103.597,253.243 105.264,250.743 109.5,250C 109.043,249.586 108.709,249.086 108.5,248.5C 128.996,247.172 149.329,247.172 169.5,248.5 Z"/></g>
<g><path style="opacity:1" fill="#a356ec" d="M 200.5,217.5 C 201.833,217.5 203.167,217.5 204.5,217.5C 204.5,223.5 204.5,229.5 204.5,235.5C 189.657,235.829 174.99,235.496 160.5,234.5C 174.833,234.5 189.167,234.5 203.5,234.5C 203.5,229.167 203.5,223.833 203.5,218.5C 202.209,218.737 201.209,218.404 200.5,217.5 Z"/></g>
<g><path style="opacity:1" fill="#b97ff2" d="M 338.5,202.5 C 341.768,206.111 343.601,210.445 344,215.5C 344.804,220.751 344.637,225.918 343.5,231C 318.833,231.667 294.167,231.667 269.5,231C 268.175,225.401 268.175,219.901 269.5,214.5C 269.5,216.833 269.5,219.167 269.5,221.5C 269.5,224.167 269.5,226.833 269.5,229.5C 294.167,229.5 318.833,229.5 343.5,229.5C 343.862,220.974 342.196,212.974 338.5,205.5C 338.5,204.5 338.5,203.5 338.5,202.5 Z"/></g>
<g><path style="opacity:1" fill="#d3a3f8" d="M 161.5,227.5 C 173.5,227.5 185.5,227.5 197.5,227.5C 185.5,228.167 173.5,228.833 161.5,229.5C 160.566,230.568 160.232,231.901 160.5,233.5C 159.861,232.903 159.528,232.07 159.5,231C 159.387,229.301 160.053,228.134 161.5,227.5 Z"/></g>
<g><path style="opacity:1" fill="#9944ec" d="M 195.5,222.5 C 197.256,223.552 197.923,225.219 197.5,227.5C 185.5,227.5 173.5,227.5 161.5,227.5C 172.654,226.505 183.988,226.172 195.5,226.5C 195.5,225.167 195.5,223.833 195.5,222.5 Z"/></g>
<g><path style="opacity:1" fill="#aa60f1" d="M 273.5,203.5 C 271.277,209.342 269.944,215.342 269.5,221.5C 269.5,219.167 269.5,216.833 269.5,214.5C 269.891,210.46 271.224,206.793 273.5,203.5 Z"/></g>
<g><path style="opacity:1" fill="#c695f6" d="M 195.5,214.5 C 197.027,214.427 198.027,215.094 198.5,216.5C 196.973,216.573 195.973,215.906 195.5,214.5 Z"/></g>
<g><path style="opacity:1" fill="#f4e8fc" d="M 199.5,171.5 C 207.648,174.129 214.982,178.296 221.5,184C 225.815,187.522 225.482,190.022 220.5,191.5C 215.536,186.013 209.536,182.013 202.5,179.5C 202.389,178.883 202.056,178.383 201.5,178C 196.167,177.333 190.833,177.333 185.5,178C 184.944,178.383 184.611,178.883 184.5,179.5C 182.496,180.673 180.996,182.34 180,184.5C 179.017,197.741 184.184,207.741 195.5,214.5C 195.973,215.906 196.973,216.573 198.5,216.5C 198.842,217.338 199.508,217.672 200.5,217.5C 201.209,218.404 202.209,218.737 203.5,218.5C 203.5,223.833 203.5,229.167 203.5,234.5C 189.167,234.5 174.833,234.5 160.5,234.5C 160.5,234.167 160.5,233.833 160.5,233.5C 160.232,231.901 160.566,230.568 161.5,229.5C 173.5,228.833 185.5,228.167 197.5,227.5C 197.923,225.219 197.256,223.552 195.5,222.5C 182.248,215.448 174.582,204.448 172.5,189.5C 173.62,185.474 174.953,181.474 176.5,177.5C 178.869,175.318 181.535,173.651 184.5,172.5C 189.463,171.746 194.463,171.413 199.5,171.5 Z"/></g>
<g><path style="opacity:1" fill="#fefdfe" d="M 161.5,229.5 C 173.851,229.832 186.185,229.499 198.5,228.5C 199.517,225.972 200.684,225.972 202,228.5C 202.49,229.793 202.657,231.127 202.5,232.5C 188.833,232.5 175.167,232.5 161.5,232.5C 161.5,231.5 161.5,230.5 161.5,229.5 Z"/></g>
<g><path style="opacity:1" fill="#ead6f8" d="M 142.5,201.5 C 144.176,202.183 144.843,203.517 144.5,205.5C 134.167,205.5 123.833,205.5 113.5,205.5C 123.341,204.833 133.341,204.167 143.5,203.5C 143.137,202.817 142.804,202.15 142.5,201.5 Z"/></g>
<g><path style="opacity:1" fill="#bb78f8" d="M 141.5,201.5 C 141.833,201.5 142.167,201.5 142.5,201.5C 142.804,202.15 143.137,202.817 143.5,203.5C 133.341,204.167 123.341,204.833 113.5,205.5C 112.566,206.568 112.232,207.901 112.5,209.5C 111.193,207.777 111.193,205.943 112.5,204C 122.552,204.145 132.219,203.312 141.5,201.5 Z"/></g>
<g><path style="opacity:1" fill="#be88f3" d="M 151.5,201.5 C 156.905,201.535 158.571,203.869 156.5,208.5C 156.657,207.127 156.49,205.793 156,204.5C 154.122,203.947 152.622,202.947 151.5,201.5 Z"/></g>
<g><path style="opacity:1" fill="#cfa2f8" d="M 240.5,175.5 C 241.844,183.712 241.677,192.045 240,200.5C 238.267,202.602 236.267,202.935 234,201.5C 233.192,197.973 233.359,194.64 234.5,191.5C 234.5,194.5 234.5,197.5 234.5,200.5C 235.833,200.5 237.167,200.5 238.5,200.5C 240.235,192.279 240.902,183.945 240.5,175.5 Z"/></g>
<g><path style="opacity:1" fill="#9140e6" d="M 256.5,147.5 C 258.265,146.539 260.265,146.205 262.5,146.5C 262.5,176.5 262.5,206.5 262.5,236.5C 261.502,207.005 261.169,177.338 261.5,147.5C 259.833,147.5 258.167,147.5 256.5,147.5 Z"/></g>
<g><path style="opacity:1" fill="#9643eb" d="M 288.5,188.5 C 288.586,189.496 288.252,190.329 287.5,191C 288.5,191.333 289.5,191.667 290.5,192C 284.864,193.815 279.864,196.648 275.5,200.5C 278.554,195.113 282.887,191.113 288.5,188.5 Z"/></g>
<g><path style="opacity:1" fill="#892fe7" d="M 338.5,202.5 C 338.5,203.5 338.5,204.5 338.5,205.5C 337.504,205.586 336.671,205.252 336,204.5C 335.147,199.864 332.314,197.698 327.5,198C 328.833,197.333 328.833,196.667 327.5,196C 324.661,194.08 321.661,192.413 318.5,191C 321.028,189.983 321.028,188.816 318.5,187.5C 308.395,186.048 298.395,186.382 288.5,188.5C 306.222,180.218 322.056,183.218 336,197.5C 337.094,199.078 337.928,200.745 338.5,202.5 Z"/></g>
<g><path style="opacity:1" fill="#7e15e6" d="M 338.5,205.5 C 342.196,212.974 343.862,220.974 343.5,229.5C 318.833,229.5 294.167,229.5 269.5,229.5C 269.5,226.833 269.5,224.167 269.5,221.5C 269.944,215.342 271.277,209.342 273.5,203.5C 273.427,201.973 274.094,200.973 275.5,200.5C 279.864,196.648 284.864,193.815 290.5,192C 289.5,191.667 288.5,191.333 287.5,191C 288.252,190.329 288.586,189.496 288.5,188.5C 298.395,186.382 308.395,186.048 318.5,187.5C 321.028,188.816 321.028,189.983 318.5,191C 321.661,192.413 324.661,194.08 327.5,196C 328.833,196.667 328.833,197.333 327.5,198C 332.314,197.698 335.147,199.864 336,204.5C 336.671,205.252 337.504,205.586 338.5,205.5 Z"/></g>
<g><path style="opacity:1" fill="#9745e9" d="M 353.5,147.5 C 351.837,168.981 350.837,190.647 350.5,212.5C 350.5,190.5 350.5,168.5 350.5,146.5C 351.791,146.263 352.791,146.596 353.5,147.5 Z"/></g>
<g><path style="opacity:1" fill="#d7b3f7" d="M 132.5,174.5 C 133.995,174.415 134.995,175.081 135.5,176.5C 134.557,181.1 134.223,185.767 134.5,190.5C 133.79,185.268 133.123,179.935 132.5,174.5 Z"/></g>
<g><path style="opacity:1" fill="#d1aef7" d="M 233.5,173.5 C 235.55,179.09 235.883,184.756 234.5,190.5C 234.24,184.828 233.907,179.161 233.5,173.5 Z"/></g>
<g><path style="opacity:1" fill="#c28af5" d="M 343.5,145.5 C 344.662,162.995 344.829,180.662 344,198.5C 343.283,197.956 342.783,197.289 342.5,196.5C 343.497,179.675 343.83,162.675 343.5,145.5 Z"/></g>
<g><path style="opacity:1" fill="#a75aef" d="M 202.5,179.5 C 196.5,178.167 190.5,178.167 184.5,179.5C 184.611,178.883 184.944,178.383 185.5,178C 190.833,177.333 196.167,177.333 201.5,178C 202.056,178.383 202.389,178.883 202.5,179.5 Z"/></g>
<g><path style="opacity:1" fill="#af68f1" d="M 157.5,171.5 C 161.908,171.062 163.575,173.062 162.5,177.5C 162.209,178.649 161.376,179.316 160,179.5C 154.452,176.605 148.619,175.938 142.5,177.5C 144.511,176.107 146.845,175.44 149.5,175.5C 153.51,176.17 157.51,176.837 161.5,177.5C 162.067,174.089 160.734,172.089 157.5,171.5 Z"/></g>
<g><path style="opacity:1" fill="#b885f1" d="M 125.5,171.5 C 127.027,171.427 128.027,172.094 128.5,173.5C 126.973,173.573 125.973,172.906 125.5,171.5 Z"/></g>
<g><path style="opacity:1" fill="#943eeb" d="M 172.5,166.5 C 173.833,166.5 175.167,166.5 176.5,166.5C 176.699,168.96 177.365,171.293 178.5,173.5C 179.696,173.154 179.696,172.654 178.5,172C 184.848,169.631 191.181,169.131 197.5,170.5C 193.818,170.335 190.152,170.501 186.5,171C 185.584,171.278 184.918,171.778 184.5,172.5C 181.535,173.651 178.869,175.318 176.5,177.5C 176.586,176.504 176.252,175.671 175.5,175C 173.256,174.95 171.589,174.117 170.5,172.5C 172.167,172.5 173.833,172.5 175.5,172.5C 175.5,170.833 175.5,169.167 175.5,167.5C 174.209,167.737 173.209,167.404 172.5,166.5 Z"/></g>
<g><path style="opacity:1" fill="#c999f7" d="M 197.5,170.5 C 198.492,170.328 199.158,170.662 199.5,171.5C 194.463,171.413 189.463,171.746 184.5,172.5C 184.918,171.778 185.584,171.278 186.5,171C 190.152,170.501 193.818,170.335 197.5,170.5 Z"/></g>
<g><path style="opacity:1" fill="#c690f5" d="M 129.5,166.5 C 132.425,166.46 135.091,167.293 137.5,169C 143.016,169.173 148.349,169.673 153.5,170.5C 147.824,170.666 142.157,170.499 136.5,170C 133.826,169.33 131.493,168.163 129.5,166.5 Z"/></g>
<g><path style="opacity:1" fill="#b370f2" d="M 236.5,163.5 C 238.245,165.033 239.245,167.033 239.5,169.5C 237.621,168.105 236.621,166.105 236.5,163.5 Z"/></g>
<g><path style="opacity:1" fill="#ab62f2" d="M 269.5,145.5 C 268.848,162.534 269.515,179.2 271.5,195.5C 271.027,196.906 270.027,197.573 268.5,197.5C 268.17,179.992 268.503,162.659 269.5,145.5 Z"/></g>
<g><path style="opacity:1" fill="#a35cee" d="M 159.5,160.5 C 164.525,161.198 168.858,163.198 172.5,166.5C 167.666,165.245 163.333,163.245 159.5,160.5 Z"/></g>
<g><path style="opacity:1" fill="#f6ecfc" d="M 159.5,160.5 C 163.333,163.245 167.666,165.245 172.5,166.5C 173.209,167.404 174.209,167.737 175.5,167.5C 175.5,169.167 175.5,170.833 175.5,172.5C 173.833,172.5 172.167,172.5 170.5,172.5C 169.833,172.5 169.167,172.5 168.5,172.5C 160.535,168.784 152.368,165.117 144,161.5C 143.333,159.833 143.333,158.167 144,156.5C 144.561,155.978 145.228,155.645 146,155.5C 150.172,158.057 154.672,159.724 159.5,160.5 Z"/></g>
<g><path style="opacity:1" fill="#d3aaf7" d="M 116.5,152.5 C 118.199,154.566 119.532,156.9 120.5,159.5C 118.058,157.879 116.725,155.546 116.5,152.5 Z"/></g>
<g><path style="opacity:1" fill="#d7b8f6" d="M 269.5,144.5 C 269.5,144.833 269.5,145.167 269.5,145.5C 268.503,162.659 268.17,179.992 268.5,197.5C 267.834,188.84 267.5,180.006 267.5,171C 267.502,161.807 268.168,152.974 269.5,144.5 Z"/></g>
<g><path style="opacity:1" fill="#c58af5" d="M 157.5,152.5 C 162.434,152.229 167.1,152.896 171.5,154.5C 166.547,154.877 161.881,154.211 157.5,152.5 Z"/></g>
<g><path style="opacity:1" fill="#8017e8" d="M 271.5,83.5 C 276.593,87.088 281.26,91.2546 285.5,96C 299.179,96.8327 312.846,96.6661 326.5,95.5C 331.238,91.4821 335.905,87.4821 340.5,83.5C 342.48,95.7892 343.147,108.456 342.5,121.5C 341.432,122.434 340.099,122.768 338.5,122.5C 336.473,122.338 334.473,122.505 332.5,123C 331.944,123.383 331.611,123.883 331.5,124.5C 330.199,125.884 330.199,127.384 331.5,129C 334.261,129.722 336.927,129.555 339.5,128.5C 340.833,128.5 342.167,128.5 343.5,128.5C 343.5,131.833 343.5,135.167 343.5,138.5C 341.833,138.5 340.167,138.5 338.5,138.5C 338.5,138.167 338.5,137.833 338.5,137.5C 337.048,136.698 335.382,136.198 333.5,136C 331.699,134.613 331.032,133.113 331.5,131.5C 329.071,132.324 326.571,132.324 324,131.5C 322.319,131.608 321.152,132.275 320.5,133.5C 319.683,135.969 319.183,138.635 319,141.5C 318.329,142.252 317.496,142.586 316.5,142.5C 311.787,142.532 310.287,140.199 312,135.5C 313.892,134.383 314.725,132.716 314.5,130.5C 315.157,126.143 313.49,123.143 309.5,121.5C 308.551,120.848 307.385,120.514 306,120.5C 303.992,120.307 302.492,120.974 301.5,122.5C 300.5,122.833 299.833,123.5 299.5,124.5C 298.679,127.641 298.179,130.975 298,134.5C 297.5,135 297,135.5 296.5,136C 301.396,134.39 303.396,136.223 302.5,141.5C 300.08,143.924 297.413,144.091 294.5,142C 293.726,139.595 293.226,137.095 293,134.5C 291.301,133.594 289.467,133.261 287.5,133.5C 286.438,144.252 291.105,149.752 301.5,150C 303.217,148.441 305.217,147.608 307.5,147.5C 308.167,148.833 309.167,149.833 310.5,150.5C 313.695,151.236 317.029,151.903 320.5,152.5C 323.483,149.834 326.816,148.834 330.5,149.5C 333.007,147.631 335.174,147.631 337,149.5C 340.39,148.268 340.223,147.434 336.5,147C 338.473,146.505 340.473,146.338 342.5,146.5C 342.667,162.17 342.5,177.837 342,193.5C 341.329,192.748 340.496,192.414 339.5,192.5C 338.464,190.609 338.464,188.776 339.5,187C 336.073,185.204 332.906,183.037 330,180.5C 329.439,181.022 328.772,181.355 328,181.5C 326.829,180.66 325.662,179.827 324.5,179C 318.723,177.74 312.89,176.907 307,176.5C 303.195,176.304 299.695,176.97 296.5,178.5C 286.388,181.401 278.055,187.068 271.5,195.5C 269.515,179.2 268.848,162.534 269.5,145.5C 269.5,145.167 269.5,144.833 269.5,144.5C 275.686,145.958 279.019,143.625 279.5,137.5C 277.5,137.5 275.5,137.5 273.5,137.5C 272.167,137.5 270.833,137.5 269.5,137.5C 269.5,134.833 269.5,132.167 269.5,129.5C 270.5,129.5 271.5,129.5 272.5,129.5C 275.187,129.664 277.854,129.497 280.5,129C 281.752,127.172 281.752,125.339 280.5,123.5C 277.124,121.918 273.458,121.251 269.5,121.5C 268.853,108.456 269.52,95.7892 271.5,83.5 Z"/></g>
<g><path style="opacity:1" fill="#9442e8" d="M 339.5,192.5 C 327.583,180.639 313.249,175.972 296.5,178.5C 299.695,176.97 303.195,176.304 307,176.5C 312.89,176.907 318.723,177.74 324.5,179C 325.662,179.827 326.829,180.66 328,181.5C 328.772,181.355 329.439,181.022 330,180.5C 332.906,183.037 336.073,185.204 339.5,187C 338.464,188.776 338.464,190.609 339.5,192.5 Z"/></g>
<g><path style="opacity:1" fill="#bf89f8" d="M 307.5,147.5 C 310.552,149.178 313.885,149.845 317.5,149.5C 315.393,150.468 313.059,150.802 310.5,150.5C 309.167,149.833 308.167,148.833 307.5,147.5 Z"/></g>
<g><path style="opacity:1" fill="#bd7ef5" d="M 367.5,143.5 C 368.461,145.265 368.795,147.265 368.5,149.5C 365.813,149.664 363.146,149.497 360.5,149C 359.584,148.722 358.918,148.222 358.5,147.5C 361.482,147.963 364.482,148.296 367.5,148.5C 367.5,146.833 367.5,145.167 367.5,143.5 Z"/></g>
<g><path style="opacity:1" fill="#f8eefc" d="M 178.5,148.5 C 179.807,150.223 179.807,152.057 178.5,154C 176.19,154.497 173.857,154.663 171.5,154.5C 167.1,152.896 162.434,152.229 157.5,152.5C 153.4,152.763 149.4,152.43 145.5,151.5C 145.5,149.833 145.5,148.167 145.5,146.5C 156.528,146.754 167.528,147.42 178.5,148.5 Z"/></g>
<g><path style="opacity:1" fill="#9641ed" d="M 178.5,148.5 C 167.528,147.42 156.528,146.754 145.5,146.5C 145.5,148.167 145.5,149.833 145.5,151.5C 143.896,150.713 143.229,149.38 143.5,147.5C 142.5,147.5 141.5,147.5 140.5,147.5C 143.053,145.038 143.053,142.705 140.5,140.5C 140.5,140.167 140.5,139.833 140.5,139.5C 142.144,139.714 143.644,139.38 145,138.5C 144.793,140.751 144.627,143.085 144.5,145.5C 154.839,145.334 165.172,145.5 175.5,146C 177.119,146.236 178.119,147.069 178.5,148.5 Z"/></g>
<g><path style="opacity:1" fill="#c289f8" d="M 252.5,141.5 C 250.708,142.309 248.708,142.809 246.5,143C 244.963,144.11 244.297,145.61 244.5,147.5C 243.113,145.511 243.447,143.678 245.5,142C 247.81,141.503 250.143,141.337 252.5,141.5 Z"/></g>
<g><path style="opacity:1" fill="#dab0f9" d="M 360.5,141.5 C 363.01,141.054 365.01,141.72 366.5,143.5C 363.99,143.946 361.99,143.28 360.5,141.5 Z"/></g>
<g><path style="opacity:1" fill="#882be8" d="M 338.5,137.5 C 336.5,137.5 334.5,137.5 332.5,137.5C 332.5,139.5 332.5,141.5 332.5,143.5C 335.786,144.207 339.119,144.54 342.5,144.5C 342.5,145.167 342.833,145.5 343.5,145.5C 343.83,162.675 343.497,179.675 342.5,196.5C 341.5,195.167 340.5,193.833 339.5,192.5C 340.496,192.414 341.329,192.748 342,193.5C 342.5,177.837 342.667,162.17 342.5,146.5C 340.473,146.338 338.473,146.505 336.5,147C 340.223,147.434 340.39,148.268 337,149.5C 335.174,147.631 333.007,147.631 330.5,149.5C 326.816,148.834 323.483,149.834 320.5,152.5C 317.029,151.903 313.695,151.236 310.5,150.5C 313.059,150.802 315.393,150.468 317.5,149.5C 324.286,146.411 326.952,141.078 325.5,133.5C 323.833,133.5 322.167,133.5 320.5,133.5C 321.152,132.275 322.319,131.608 324,131.5C 326.571,132.324 329.071,132.324 331.5,131.5C 331.032,133.113 331.699,134.613 333.5,136C 335.382,136.198 337.048,136.698 338.5,137.5 Z"/></g>
<g><path style="opacity:1" fill="#d6aff8" d="M 262.5,139.5 C 260.012,141.388 257.012,142.055 253.5,141.5C 256.39,140.755 259.39,140.088 262.5,139.5 Z"/></g>
<g><path style="opacity:1" fill="#f7edfd" d="M 140.5,140.5 C 143.053,142.705 143.053,145.038 140.5,147.5C 137.99,147.946 135.99,147.28 134.5,145.5C 134.651,141.686 136.651,140.019 140.5,140.5 Z"/></g>
<g><path style="opacity:1" fill="#dbbdf7" d="M 338.5,137.5 C 338.5,137.833 338.5,138.167 338.5,138.5C 336.833,138.5 335.167,138.5 333.5,138.5C 333.5,139.833 333.5,141.167 333.5,142.5C 336.689,142.858 339.689,143.525 342.5,144.5C 339.119,144.54 335.786,144.207 332.5,143.5C 332.5,141.5 332.5,139.5 332.5,137.5C 334.5,137.5 336.5,137.5 338.5,137.5 Z"/></g>
<g><path style="opacity:1" fill="#d5b0f7" d="M 140.5,139.5 C 140.5,139.833 140.5,140.167 140.5,140.5C 136.651,140.019 134.651,141.686 134.5,145.5C 133.178,140.813 135.178,138.813 140.5,139.5 Z"/></g>
<g><path style="opacity:1" fill="#a459f2" d="M 314.5,130.5 C 314.725,132.716 313.892,134.383 312,135.5C 310.287,140.199 311.787,142.532 316.5,142.5C 314.777,143.807 312.943,143.807 311,142.5C 309.593,137.599 310.76,133.599 314.5,130.5 Z"/></g>
<g><path style="opacity:1" fill="#c691f7" d="M 157.5,136.5 C 157.389,137.117 157.056,137.617 156.5,138C 165.343,138.17 174.01,138.67 182.5,139.5C 173.143,139.832 163.81,139.498 154.5,138.5C 155.005,137.081 156.005,136.415 157.5,136.5 Z"/></g>
<g><path style="opacity:1" fill="#e3cdf7" d="M 339.5,128.5 C 341.223,127.193 343.057,127.193 345,128.5C 345.499,132.152 345.665,135.818 345.5,139.5C 342.941,139.802 340.607,139.468 338.5,138.5C 340.167,138.5 341.833,138.5 343.5,138.5C 343.5,135.167 343.5,131.833 343.5,128.5C 342.167,128.5 340.833,128.5 339.5,128.5 Z"/></g>
<g><path style="opacity:1" fill="#a15aee" d="M 299.5,124.5 C 298.66,128.911 299.827,132.577 303,135.5C 303.789,137.712 303.622,139.712 302.5,141.5C 303.396,136.223 301.396,134.39 296.5,136C 297,135.5 297.5,135 298,134.5C 298.179,130.975 298.679,127.641 299.5,124.5 Z"/></g>
<g><path style="opacity:1" fill="#b065f3" d="M 272.5,129.5 C 271.5,129.5 270.5,129.5 269.5,129.5C 269.5,132.167 269.5,134.833 269.5,137.5C 270.833,137.5 272.167,137.5 273.5,137.5C 272.081,138.451 270.415,138.784 268.5,138.5C 268.5,135.167 268.5,131.833 268.5,128.5C 270.099,128.232 271.432,128.566 272.5,129.5 Z"/></g>
<g><path style="opacity:1" fill="#ddc0f8" d="M 172.5,132.5 C 175.5,132.5 178.5,132.5 181.5,132.5C 185.733,132.539 189.733,133.205 193.5,134.5C 186.323,134.158 179.323,133.491 172.5,132.5 Z"/></g>
<g><path style="opacity:1" fill="#ab63f1" d="M 351.5,127.5 C 351.5,131.5 351.5,135.5 351.5,139.5C 354.689,139.858 357.689,140.525 360.5,141.5C 357.223,141.784 354.057,141.451 351,140.5C 350.186,135.98 350.353,131.646 351.5,127.5 Z"/></g>
<g><path style="opacity:1" fill="#b574f5" d="M 173.5,129.5 C 175.857,131.098 178.523,132.098 181.5,132.5C 178.5,132.5 175.5,132.5 172.5,132.5C 172.263,131.209 172.596,130.209 173.5,129.5 Z"/></g>
<g><path style="opacity:1" fill="#c487f5" d="M 338.5,122.5 C 336.343,123.407 334.01,124.073 331.5,124.5C 331.611,123.883 331.944,123.383 332.5,123C 334.473,122.505 336.473,122.338 338.5,122.5 Z"/></g>
<g><path style="opacity:1" fill="#f8f1fd" d="M 309.5,121.5 C 313.49,123.143 315.157,126.143 314.5,130.5C 310.76,133.599 309.593,137.599 311,142.5C 312.943,143.807 314.777,143.807 316.5,142.5C 317.496,142.586 318.329,142.252 319,141.5C 319.183,138.635 319.683,135.969 320.5,133.5C 322.167,133.5 323.833,133.5 325.5,133.5C 326.952,141.078 324.286,146.411 317.5,149.5C 313.885,149.845 310.552,149.178 307.5,147.5C 305.217,147.608 303.217,148.441 301.5,150C 291.105,149.752 286.438,144.252 287.5,133.5C 289.467,133.261 291.301,133.594 293,134.5C 293.226,137.095 293.726,139.595 294.5,142C 297.413,144.091 300.08,143.924 302.5,141.5C 303.622,139.712 303.789,137.712 303,135.5C 299.827,132.577 298.66,128.911 299.5,124.5C 299.833,123.5 300.5,122.833 301.5,122.5C 304.096,121.735 306.763,121.401 309.5,121.5 Z"/></g>
<g><path style="opacity:1" fill="#c798fc" d="M 309.5,121.5 C 306.763,121.401 304.096,121.735 301.5,122.5C 302.492,120.974 303.992,120.307 306,120.5C 307.385,120.514 308.551,120.848 309.5,121.5 Z"/></g>
<g><path style="opacity:1" fill="#d5aafa" d="M 251.5,119.5 C 249.052,119.01 247.385,119.843 246.5,122C 247.347,123.771 248.68,124.937 250.5,125.5C 245.514,125.695 243.848,123.528 245.5,119C 247.712,118.211 249.712,118.378 251.5,119.5 Z"/></g>
<g><path style="opacity:1" fill="#c08af9" d="M 182.5,118.5 C 182.573,120.027 181.906,121.027 180.5,121.5C 180.427,119.973 181.094,118.973 182.5,118.5 Z"/></g>
<g><path style="opacity:1" fill="#d8a8f7" d="M 360.5,125.5 C 361.878,124.766 363.378,124.099 365,123.5C 365.483,122.552 365.649,121.552 365.5,120.5C 361.5,120.5 357.5,120.5 353.5,120.5C 353.5,120.167 353.5,119.833 353.5,119.5C 357.808,118.632 362.141,118.466 366.5,119C 367.983,124.026 365.983,126.193 360.5,125.5 Z"/></g>
<g><path style="opacity:1" fill="#be82f4" d="M 334.5,116.5 C 334.586,117.496 334.252,118.329 333.5,119C 331.288,119.789 329.288,119.622 327.5,118.5C 330.188,118.834 332.521,118.168 334.5,116.5 Z"/></g>
<g><path style="opacity:1" fill="#b97bf6" d="M 280.5,111.5 C 279.977,117.487 282.477,119.487 288,117.5C 288.495,115.527 288.662,113.527 288.5,111.5C 289.629,113.628 289.796,115.961 289,118.5C 281.513,121.163 278.679,118.829 280.5,111.5 Z"/></g>
<g><path style="opacity:1" fill="#d5a6fb" d="M 146.5,105.5 C 146.5,113.5 146.5,121.5 146.5,129.5C 145.167,129.5 143.833,129.5 142.5,129.5C 143.209,128.596 144.209,128.263 145.5,128.5C 145.175,120.648 145.508,112.982 146.5,105.5 Z"/></g>
<g><path style="opacity:1" fill="#9645f0" d="M 142.5,93.5 C 142.279,96.3919 141.446,99.0585 140,101.5C 139.667,108.167 139.333,114.833 139,121.5C 137.961,120.756 137.461,119.756 137.5,118.5C 138.328,112.681 138.828,106.681 139,100.5C 139.898,97.9309 141.065,95.5976 142.5,93.5 Z"/></g>
<g><path style="opacity:1" fill="#f7eefd" d="M 332.5,110.5 C 334.075,112.114 334.741,114.114 334.5,116.5C 332.521,118.168 330.188,118.834 327.5,118.5C 325.455,116.304 325.122,113.97 326.5,111.5C 328.435,110.85 330.435,110.517 332.5,110.5 Z"/></g>
<g><path style="opacity:1" fill="#faf4fe" d="M 288.5,111.5 C 288.662,113.527 288.495,115.527 288,117.5C 282.477,119.487 279.977,117.487 280.5,111.5C 283.167,110.167 285.833,110.167 288.5,111.5 Z"/></g>
<g><path style="opacity:1" fill="#b778f5" d="M 189.5,102.5 C 189.29,108.866 186.957,114.2 182.5,118.5C 184.855,113.129 187.188,107.795 189.5,102.5 Z"/></g>
<g><path style="opacity:1" fill="#c68df8" d="M 332.5,110.5 C 330.435,110.517 328.435,110.85 326.5,111.5C 327.134,110.053 328.301,109.387 330,109.5C 331.07,109.528 331.903,109.861 332.5,110.5 Z"/></g>
<g><path style="opacity:1" fill="#d2abf7" d="M 185.5,95.5 C 185.268,99.9417 183.935,103.942 181.5,107.5C 181.861,103.085 183.194,99.0845 185.5,95.5 Z"/></g>
<g><path style="opacity:1" fill="#d0a3f7" d="M 342.5,81.5 C 342.56,80.9569 342.893,80.6236 343.5,80.5C 344.826,94.3276 344.826,107.994 343.5,121.5C 343.829,107.99 343.496,94.6562 342.5,81.5 Z"/></g>
<g><path style="opacity:1" fill="#d2aef6" d="M 270.5,81.5 C 268.519,94.4581 267.852,107.791 268.5,121.5C 267.504,108.01 267.171,94.3435 267.5,80.5C 268.791,80.2627 269.791,80.596 270.5,81.5 Z"/></g>
<g><path style="opacity:1" fill="#a85af4" d="M 270.5,81.5 C 271.338,81.8417 271.672,82.5084 271.5,83.5C 269.52,95.7892 268.853,108.456 269.5,121.5C 273.458,121.251 277.124,121.918 280.5,123.5C 276.295,123.283 272.295,122.617 268.5,121.5C 267.852,107.791 268.519,94.4581 270.5,81.5 Z"/></g>
<g><path style="opacity:1" fill="#b87ef4" d="M 149.5,92.5 C 149.741,94.8984 149.074,96.8984 147.5,98.5C 147.259,96.1016 147.926,94.1016 149.5,92.5 Z"/></g>
<g><path style="opacity:1" fill="#9e4fee" d="M 342.5,81.5 C 343.496,94.6562 343.829,107.99 343.5,121.5C 343.167,121.5 342.833,121.5 342.5,121.5C 343.147,108.456 342.48,95.7892 340.5,83.5C 340.833,82.5 341.5,81.8333 342.5,81.5 Z"/></g>
<g><path style="opacity:1" fill="#ca9bf6" d="M 120.5,91.5 C 121.946,94.2542 122.946,97.2542 123.5,100.5C 121.446,97.9924 120.446,94.9924 120.5,91.5 Z"/></g>
<g><path style="opacity:1" fill="#a765ef" d="M 83.5,411.5 C 85.5869,412.585 86.9202,414.251 87.5,416.5C 85.4131,415.415 84.0798,413.749 83.5,411.5 Z"/></g>
<g><path style="opacity:1" fill="#b478f4" d="M 378.5,417.5 C 377.415,419.587 375.749,420.92 373.5,421.5C 374.585,419.413 376.251,418.08 378.5,417.5 Z"/></g>
<g><path style="opacity:1" fill="#c99ef2" d="M 92.5,420.5 C 94.0269,420.427 95.0269,421.094 95.5,422.5C 93.9731,422.573 92.9731,421.906 92.5,420.5 Z"/></g>
<g><path style="opacity:1" fill="#ae66f2" d="M 101.5,418.5 C 104.32,418.248 106.986,418.748 109.5,420C 193.166,420.5 276.833,420.667 360.5,420.5C 359.048,421.302 357.382,421.802 355.5,422C 273.5,422.667 191.5,422.667 109.5,422C 106.626,421.058 103.96,419.891 101.5,418.5 Z"/></g>
<g><path style="opacity:1" fill="#a055eb" d="M 95.5,422.5 C 98.2982,423.65 100.965,424.983 103.5,426.5C 101.167,426.5 98.8333,426.5 96.5,426.5C 96.5674,425.041 96.2341,423.708 95.5,422.5 Z"/></g>
<g><path style="opacity:1" fill="#b46cf6" d="M 373.5,421.5 C 372.657,423.173 371.324,424.34 369.5,425C 369.833,425.333 370.167,425.667 370.5,426C 366.5,427 362.5,428 358.5,429C 275.167,429.667 191.833,429.667 108.5,429C 106.825,428.015 105.158,427.181 103.5,426.5C 188.816,427.653 274.149,427.82 359.5,427C 364.32,425.418 368.986,423.585 373.5,421.5 Z"/></g>
<g><path style="opacity:1" fill="#aa62f4" d="M 242.5,478.5 C 227.163,478.333 211.83,478.5 196.5,479C 194.845,480.444 194.178,482.278 194.5,484.5C 193.058,482.183 193.392,480.016 195.5,478C 211.339,477.172 227.005,477.339 242.5,478.5 Z"/></g>
<g><path style="opacity:1" fill="#a55df1" d="M 327.5,478.5 C 342.641,477.538 357.807,477.204 373,477.5C 372.808,481.431 372.475,485.431 372,489.5C 371.329,490.252 370.496,490.586 369.5,490.5C 369.5,490.167 369.5,489.833 369.5,489.5C 370.3,487.393 370.967,485.226 371.5,483C 371.561,481.289 370.894,479.956 369.5,479C 355.504,478.5 341.504,478.333 327.5,478.5 Z"/></g>
<g><path style="opacity:1" fill="#f8f2fd" d="M 119.5,491.5 C 120.989,494.232 121.655,497.232 121.5,500.5C 121.546,504.386 120.879,508.053 119.5,511.5C 117.196,514.141 114.862,516.808 112.5,519.5C 109.521,520.654 106.521,521.82 103.5,523C 95.8406,523.5 88.1739,523.666 80.5,523.5C 79.6708,531.323 79.1708,539.323 79,547.5C 76.8797,548.605 74.7131,548.605 72.5,547.5C 72.3334,524.831 72.5,502.164 73,479.5C 84.4827,478.076 95.9827,478.243 107.5,480C 110.491,481.83 113.491,483.663 116.5,485.5C 118.415,487.071 119.415,489.071 119.5,491.5 Z"/></g>
<g><path style="opacity:1" fill="#faf5fd" d="M 177.5,486.5 C 166.5,486.5 155.5,486.5 144.5,486.5C 143.173,493.902 143.173,501.402 144.5,509C 154.161,509.5 163.828,509.666 173.5,509.5C 174.938,512.083 174.604,514.417 172.5,516.5C 162.985,516.173 153.652,516.506 144.5,517.5C 143.508,525.316 143.174,533.316 143.5,541.5C 154.833,541.5 166.167,541.5 177.5,541.5C 180.147,543.551 180.147,545.551 177.5,547.5C 164.117,547.797 150.784,547.464 137.5,546.5C 137.5,524.167 137.5,501.833 137.5,479.5C 150.66,478.34 163.994,478.173 177.5,479C 178.574,479.739 179.241,480.739 179.5,482C 178.586,483.406 177.92,484.906 177.5,486.5 Z"/></g>
<g><path style="opacity:1" fill="#f6ecfd" d="M 242.5,478.5 C 245.148,480.798 245.148,483.132 242.5,485.5C 236.202,486.496 229.868,486.83 223.5,486.5C 223.667,506.503 223.5,526.503 223,546.5C 220.379,549.14 217.879,549.14 215.5,546.5C 215.5,526.5 215.5,506.5 215.5,486.5C 209.167,486.5 202.833,486.5 196.5,486.5C 196.167,485.5 195.5,484.833 194.5,484.5C 194.178,482.278 194.845,480.444 196.5,479C 211.83,478.5 227.163,478.333 242.5,478.5 Z"/></g>
<g><path style="opacity:1" fill="#f9f2fd" d="M 288.5,546.5 C 286.581,548.522 284.414,548.856 282,547.5C 281.832,526.996 281.332,506.663 280.5,486.5C 274.158,486.666 267.825,486.5 261.5,486C 259.675,484.534 259.175,482.701 260,480.5C 267.934,479.183 276.1,478.516 284.5,478.5C 292.742,478.507 300.909,478.841 309,479.5C 309.896,482.025 309.396,484.192 307.5,486C 301.175,486.5 294.842,486.666 288.5,486.5C 288.5,506.5 288.5,526.5 288.5,546.5 Z"/></g>
<g><path style="opacity:1" fill="#9947eb" d="M 144.5,486.5 C 155.5,486.5 166.5,486.5 177.5,486.5C 167.013,487.494 156.346,487.828 145.5,487.5C 145.5,494.167 145.5,500.833 145.5,507.5C 144.509,500.687 144.175,493.687 144.5,486.5 Z"/></g>
<g><path style="opacity:1" fill="#fdfafe" d="M 393.5,480.5 C 393.812,503.212 393.479,525.879 392.5,548.5C 390.856,548.714 389.356,548.38 388,547.5C 387.5,524.836 387.333,502.169 387.5,479.5C 388.097,478.861 388.93,478.528 390,478.5C 391.699,478.387 392.866,479.053 393.5,480.5 Z"/></g>
<g><path style="opacity:1" fill="#c088f8" d="M 369.5,489.5 C 369.5,489.833 369.5,490.167 369.5,490.5C 368.527,492.139 367.194,493.473 365.5,494.5C 366.136,492.205 367.469,490.539 369.5,489.5 Z"/></g>
<g><path style="opacity:1" fill="#7e17e7" d="M 105.5,488.5 C 109.067,489.068 111.401,491.068 112.5,494.5C 112.663,499.547 112.329,504.547 111.5,509.5C 109.4,511.616 107.067,513.283 104.5,514.5C 96.8333,514.5 89.1667,514.5 81.5,514.5C 81.5,505.5 81.5,496.5 81.5,487.5C 89.5417,487.264 97.5417,487.597 105.5,488.5 Z"/></g>
<g><path style="opacity:1" fill="#9a4aeb" d="M 196.5,486.5 C 202.833,486.5 209.167,486.5 215.5,486.5C 215.5,506.5 215.5,526.5 215.5,546.5C 213.512,527.195 212.846,507.528 213.5,487.5C 207.642,487.822 201.975,487.489 196.5,486.5 Z"/></g>
<g><path style="opacity:1" fill="#f7f0fd" d="M 327.5,478.5 C 341.504,478.333 355.504,478.5 369.5,479C 370.894,479.956 371.561,481.289 371.5,483C 370.967,485.226 370.3,487.393 369.5,489.5C 367.469,490.539 366.136,492.205 365.5,494.5C 355.423,508.313 346.09,522.647 337.5,537.5C 336.5,537.833 335.833,538.5 335.5,539.5C 334.957,539.56 334.624,539.893 334.5,540.5C 346.482,541.499 358.482,541.832 370.5,541.5C 371.833,543.833 371.833,546.167 370.5,548.5C 355.657,548.829 340.99,548.496 326.5,547.5C 325.167,544.833 325.167,542.167 326.5,539.5C 332.448,529.558 338.781,519.891 345.5,510.5C 346.974,509.564 347.974,508.23 348.5,506.5C 351.758,499.772 355.758,493.438 360.5,487.5C 349.515,486.668 338.515,486.168 327.5,486C 324.86,483.379 324.86,480.879 327.5,478.5 Z"/></g>
<g><path style="opacity:1" fill="#a35aeb" d="M 112.5,494.5 C 113.117,494.611 113.617,494.944 114,495.5C 115.086,500.632 114.252,505.299 111.5,509.5C 112.329,504.547 112.663,499.547 112.5,494.5 Z"/></g>
<g><path style="opacity:1" fill="#cca3f6" d="M 280.5,486.5 C 281.332,506.663 281.832,526.996 282,547.5C 284.414,548.856 286.581,548.522 288.5,546.5C 288.586,547.496 288.252,548.329 287.5,549C 285.231,549.758 283.064,549.591 281,548.5C 280.5,527.836 280.333,507.169 280.5,486.5 Z"/></g>
<g><path style="opacity:1" fill="#a051ed" d="M 105.5,488.5 C 97.5417,487.597 89.5417,487.264 81.5,487.5C 81.5,496.5 81.5,505.5 81.5,514.5C 89.1667,514.5 96.8333,514.5 104.5,514.5C 96.6841,515.492 88.6841,515.826 80.5,515.5C 80.5,505.833 80.5,496.167 80.5,486.5C 89.2337,485.865 97.5671,486.532 105.5,488.5 Z"/></g>
<g><path style="opacity:1" fill="#c490f5" d="M 119.5,491.5 C 120.458,491.953 121.292,492.619 122,493.5C 122.667,498.167 122.667,502.833 122,507.5C 121.066,508.858 120.232,510.192 119.5,511.5C 120.879,508.053 121.546,504.386 121.5,500.5C 121.655,497.232 120.989,494.232 119.5,491.5 Z"/></g>
<g><path style="opacity:1" fill="#cea4f9" d="M 144.5,486.5 C 144.175,493.687 144.509,500.687 145.5,507.5C 154.833,508.167 164.167,508.833 173.5,509.5C 163.828,509.666 154.161,509.5 144.5,509C 143.173,501.402 143.173,493.902 144.5,486.5 Z"/></g>
<g><path style="opacity:1" fill="#cca0f7" d="M 348.5,506.5 C 347.974,508.23 346.974,509.564 345.5,510.5C 345.554,508.368 346.554,507.035 348.5,506.5 Z"/></g>
<g><path style="opacity:1" fill="#c17ff9" d="M 173.5,509.5 C 174.693,509.97 175.36,510.97 175.5,512.5C 175.89,514.982 174.89,516.315 172.5,516.5C 174.604,514.417 174.938,512.083 173.5,509.5 Z"/></g>
<g><path style="opacity:1" fill="#d9bbf9" d="M 393.5,480.5 C 394.663,502.663 394.83,524.996 394,547.5C 393.617,548.056 393.117,548.389 392.5,548.5C 393.479,525.879 393.812,503.212 393.5,480.5 Z"/></g>
<g><path style="opacity:1" fill="#d7b4f9" d="M 137.5,479.5 C 137.5,501.833 137.5,524.167 137.5,546.5C 136.168,535.854 135.501,524.854 135.5,513.5C 135.667,502.5 135.833,491.5 136,480.5C 136.383,479.944 136.883,479.611 137.5,479.5 Z"/></g>
<g><path style="opacity:1" fill="#903aeb" d="M 112.5,519.5 C 111.708,521.257 110.375,522.591 108.5,523.5C 99.8589,524.498 91.1922,524.831 82.5,524.5C 82.6662,530.509 82.4995,536.509 82,542.5C 81.7679,543.737 81.2679,544.737 80.5,545.5C 80.5,538.167 80.5,530.833 80.5,523.5C 88.1739,523.666 95.8406,523.5 103.5,523C 106.521,521.82 109.521,520.654 112.5,519.5 Z"/></g>
<g><path style="opacity:1" fill="#c99ff7" d="M 80.5,523.5 C 80.5,530.833 80.5,538.167 80.5,545.5C 80.67,546.822 80.3366,547.989 79.5,549C 77.5,549.667 75.5,549.667 73.5,549C 72.944,548.617 72.6107,548.117 72.5,547.5C 74.7131,548.605 76.8797,548.605 79,547.5C 79.1708,539.323 79.6708,531.323 80.5,523.5 Z"/></g>
<g><path style="opacity:1" fill="#a85df4" d="M 172.5,516.5 C 163.682,517.493 154.682,517.827 145.5,517.5C 145.5,524.833 145.5,532.167 145.5,539.5C 156.346,539.172 167.013,539.506 177.5,540.5C 166.5,540.5 155.5,540.5 144.5,540.5C 144.5,532.833 144.5,525.167 144.5,517.5C 153.652,516.506 162.985,516.173 172.5,516.5 Z"/></g>
<g><path style="opacity:1" fill="#9c4af2" d="M 337.5,537.5 C 342.624,538.829 348.124,539.495 354,539.5C 359.882,539.479 365.715,539.146 371.5,538.5C 372.308,538.808 372.975,539.308 373.5,540C 373.162,543.254 372.162,546.088 370.5,548.5C 371.833,546.167 371.833,543.833 370.5,541.5C 358.833,540.833 347.167,540.167 335.5,539.5C 335.833,538.5 336.5,537.833 337.5,537.5 Z"/></g>
<g><path style="opacity:1" fill="#d1a9f9" d="M 144.5,517.5 C 144.5,525.167 144.5,532.833 144.5,540.5C 155.5,540.5 166.5,540.5 177.5,540.5C 177.5,540.833 177.5,541.167 177.5,541.5C 166.167,541.5 154.833,541.5 143.5,541.5C 143.174,533.316 143.508,525.316 144.5,517.5 Z"/></g>
<g><path style="opacity:1" fill="#d1a6fa" d="M 335.5,539.5 C 347.167,540.167 358.833,540.833 370.5,541.5C 358.482,541.832 346.482,541.499 334.5,540.5C 334.624,539.893 334.957,539.56 335.5,539.5 Z"/></g>
<g><path style="opacity:1" fill="#d2abfd" d="M 326.5,539.5 C 325.167,542.167 325.167,544.833 326.5,547.5C 325.007,546.688 324.34,545.355 324.5,543.5C 324.34,541.645 325.007,540.312 326.5,539.5 Z"/></g>
<g><path style="opacity:1" fill="#e6cdfa" d="M 137.5,546.5 C 150.784,547.464 164.117,547.797 177.5,547.5C 164.673,548.66 151.673,548.827 138.5,548C 137.944,547.617 137.611,547.117 137.5,546.5 Z"/></g>
<g><path style="opacity:1" fill="#d0a1fb" d="M 387.5,479.5 C 387.333,502.169 387.5,524.836 388,547.5C 389.356,548.38 390.856,548.714 392.5,548.5C 390.777,549.807 388.943,549.807 387,548.5C 386.17,525.33 386.337,502.33 387.5,479.5 Z"/></g>
</svg>
